<svg id="splitsvg" version="1.1" xmlns="http://www.w3.org/2000/svg" xmlns:xlink="http://www.w3.org/1999/xlink" width="1380" height="430"><g id="svgg"><path id="path0" d="M40.000 38.400 C 40.000 38.620,39.730 38.800,39.400 38.800 C 39.070 38.800,38.800 39.070,38.800 39.400 C 38.800 39.740,38.441 40.000,37.971 40.000 C 36.780 40.000,36.000 40.950,36.000 42.400 C 36.000 43.535,36.738 44.800,37.400 44.800 C 37.815 44.800,38.800 45.905,38.800 46.371 C 38.800 46.607,38.993 46.800,39.229 46.800 C 39.782 46.800,40.800 47.818,40.800 48.371 C 40.800 48.607,40.993 48.800,41.229 48.800 C 41.782 48.800,42.800 49.818,42.800 50.371 C 42.800 50.607,42.993 50.800,43.229 50.800 C 43.934 50.800,44.800 51.886,44.800 52.771 C 44.800 53.389,45.055 53.600,45.800 53.600 C 46.546 53.600,46.800 53.811,46.800 54.431 C 46.800 55.275,49.622 58.400,50.384 58.400 C 50.613 58.400,50.800 58.593,50.800 58.829 C 50.800 59.382,51.818 60.400,52.371 60.400 C 52.607 60.400,52.800 60.593,52.800 60.829 C 52.800 61.382,53.818 62.400,54.371 62.400 C 54.607 62.400,54.800 62.593,54.800 62.829 C 54.800 63.382,55.818 64.400,56.371 64.400 C 56.607 64.400,56.800 64.593,56.800 64.829 C 56.800 65.382,57.818 66.400,58.371 66.400 C 58.607 66.400,58.800 66.850,58.800 67.400 C 58.800 67.950,58.980 68.400,59.200 68.400 C 59.420 68.400,59.600 68.640,59.600 68.932 C 59.600 69.225,60.030 69.695,60.556 69.976 C 61.082 70.258,61.742 70.918,62.024 71.444 C 62.305 71.970,62.698 72.400,62.896 72.400 C 63.395 72.400,64.400 73.450,64.400 73.971 C 64.400 74.207,64.593 74.400,64.829 74.400 C 65.382 74.400,66.400 75.418,66.400 75.971 C 66.400 76.207,66.593 76.400,66.829 76.400 C 67.382 76.400,68.400 77.418,68.400 77.971 C 68.400 78.207,68.593 78.400,68.829 78.400 C 69.382 78.400,70.400 79.418,70.400 79.971 C 70.400 80.207,70.593 80.400,70.829 80.400 C 71.534 80.400,72.400 81.486,72.400 82.371 C 72.400 82.841,72.660 83.200,73.000 83.200 C 73.330 83.200,73.600 83.388,73.600 83.618 C 73.600 84.161,75.439 86.000,75.982 86.000 C 76.212 86.000,76.400 86.193,76.400 86.429 C 76.400 86.982,77.418 88.000,77.971 88.000 C 78.207 88.000,78.400 88.193,78.400 88.429 C 78.400 88.664,78.657 89.114,78.971 89.429 C 79.286 89.743,79.736 90.000,79.971 90.000 C 80.207 90.000,80.400 90.193,80.400 90.429 C 80.400 90.664,80.657 91.114,80.971 91.429 C 81.286 91.743,81.736 92.000,81.971 92.000 C 82.207 92.000,82.400 92.193,82.400 92.429 C 82.400 92.664,82.657 93.114,82.971 93.429 C 83.286 93.743,83.736 94.000,83.971 94.000 C 84.207 94.000,84.400 94.193,84.400 94.429 C 84.400 94.982,85.418 96.000,85.971 96.000 C 86.207 96.000,86.400 96.410,86.400 96.912 C 86.400 97.413,86.760 98.083,87.200 98.400 C 87.906 98.909,88.000 99.435,88.000 102.888 C 88.000 106.099,88.108 106.800,88.600 106.800 C 89.112 106.800,89.200 107.889,89.200 114.200 C 89.200 118.867,89.348 121.600,89.600 121.600 C 89.850 121.600,90.000 124.000,90.000 128.000 C 90.000 133.422,90.092 134.400,90.600 134.400 C 91.110 134.400,91.200 135.444,91.200 141.400 C 91.200 145.800,91.349 148.400,91.600 148.400 C 91.852 148.400,92.000 151.067,92.000 155.600 C 92.000 161.733,92.089 162.800,92.600 162.800 C 93.112 162.800,93.200 163.889,93.200 170.200 C 93.200 174.867,93.348 177.600,93.600 177.600 C 93.849 177.600,94.000 179.867,94.000 183.600 C 94.000 188.667,94.093 189.600,94.600 189.600 C 95.112 189.600,95.200 190.689,95.200 197.000 C 95.200 201.667,95.348 204.400,95.600 204.400 C 95.852 204.400,96.000 207.133,96.000 211.800 C 96.000 218.111,96.088 219.200,96.600 219.200 C 97.108 219.200,97.200 220.178,97.200 225.600 C 97.200 229.600,97.350 232.000,97.600 232.000 C 97.851 232.000,98.000 234.533,98.000 238.800 C 98.000 244.578,98.090 245.600,98.600 245.600 C 99.112 245.600,99.200 246.689,99.200 253.000 C 99.200 257.667,99.348 260.400,99.600 260.400 C 99.852 260.400,100.000 263.133,100.000 267.800 C 100.000 272.467,100.148 275.200,100.400 275.200 C 100.648 275.200,100.800 277.404,100.800 281.013 C 100.800 285.810,100.905 286.865,101.400 287.055 C 101.903 287.248,102.000 288.472,102.000 294.643 C 102.000 299.281,102.148 302.000,102.400 302.000 C 102.646 302.000,102.800 304.009,102.800 307.227 L 102.800 312.454 101.400 313.774 C 100.630 314.500,100.000 315.401,100.000 315.776 C 100.000 316.538,99.085 317.600,98.429 317.600 C 98.193 317.600,98.000 317.793,98.000 318.029 C 98.000 318.495,97.015 319.600,96.600 319.600 C 96.185 319.600,95.200 320.705,95.200 321.171 C 95.200 321.407,95.007 321.600,94.771 321.600 C 94.218 321.600,93.200 322.618,93.200 323.171 C 93.200 323.407,93.007 323.600,92.771 323.600 C 92.218 323.600,91.200 324.618,91.200 325.171 C 91.200 325.407,91.007 325.600,90.771 325.600 C 90.218 325.600,89.200 326.618,89.200 327.171 C 89.200 327.407,89.007 327.600,88.771 327.600 C 88.218 327.600,87.200 328.618,87.200 329.171 C 87.200 329.407,87.020 329.600,86.800 329.600 C 86.580 329.600,86.400 330.050,86.400 330.600 C 86.400 331.150,86.204 331.600,85.964 331.600 C 85.725 331.600,84.741 332.410,83.779 333.400 C 82.817 334.390,81.843 335.200,81.615 335.200 C 81.387 335.200,81.200 335.393,81.200 335.629 C 81.200 336.182,80.182 337.200,79.629 337.200 C 79.393 337.200,79.200 337.393,79.200 337.629 C 79.200 338.182,78.182 339.200,77.629 339.200 C 77.393 339.200,77.200 339.393,77.200 339.629 C 77.200 340.182,76.182 341.200,75.629 341.200 C 75.393 341.200,75.200 341.430,75.200 341.712 C 75.200 341.993,74.840 342.483,74.400 342.800 C 73.960 343.117,73.600 343.607,73.600 343.888 C 73.600 344.170,73.330 344.400,73.000 344.400 C 72.667 344.400,72.400 344.756,72.400 345.200 C 72.400 345.640,72.220 346.000,72.000 346.000 C 71.780 346.000,71.600 346.270,71.600 346.600 C 71.600 346.930,71.407 347.200,71.171 347.200 C 70.618 347.200,69.600 348.218,69.600 348.771 C 69.600 349.007,69.407 349.200,69.171 349.200 C 68.618 349.200,67.600 350.218,67.600 350.771 C 67.600 351.007,67.407 351.200,67.171 351.200 C 66.618 351.200,65.600 352.218,65.600 352.771 C 65.600 353.007,65.407 353.200,65.171 353.200 C 64.618 353.200,63.600 354.218,63.600 354.771 C 63.600 355.007,63.407 355.200,63.171 355.200 C 62.618 355.200,61.600 356.218,61.600 356.771 C 61.600 357.007,61.396 357.200,61.147 357.200 C 60.485 357.200,58.801 359.282,58.800 360.100 C 58.800 360.485,58.530 360.800,58.200 360.800 C 57.870 360.800,57.600 360.993,57.600 361.229 C 57.600 361.782,56.582 362.800,56.029 362.800 C 55.793 362.800,55.600 362.993,55.600 363.229 C 55.600 363.782,54.582 364.800,54.029 364.800 C 53.793 364.800,53.600 364.993,53.600 365.229 C 53.600 365.782,52.582 366.800,52.029 366.800 C 51.793 366.800,51.600 366.993,51.600 367.229 C 51.600 367.782,50.582 368.800,50.029 368.800 C 49.793 368.800,49.600 368.993,49.600 369.229 C 49.600 369.782,48.582 370.800,48.029 370.800 C 47.793 370.800,47.600 371.070,47.600 371.400 C 47.600 371.730,47.420 372.000,47.200 372.000 C 46.980 372.000,46.800 372.360,46.800 372.800 C 46.800 373.387,46.533 373.600,45.800 373.600 C 45.000 373.600,44.800 373.800,44.800 374.600 C 44.800 375.150,44.620 375.600,44.400 375.600 C 44.180 375.600,44.000 375.870,44.000 376.200 C 44.000 376.530,43.807 376.800,43.571 376.800 C 43.018 376.800,42.000 377.818,42.000 378.371 C 42.000 378.607,41.807 378.800,41.571 378.800 C 41.018 378.800,40.000 379.818,40.000 380.371 C 40.000 380.607,39.807 380.800,39.571 380.800 C 39.018 380.800,38.000 381.818,38.000 382.371 C 38.000 382.607,37.807 382.800,37.571 382.800 C 36.759 382.800,36.000 383.946,36.000 385.171 C 36.000 385.847,36.180 386.400,36.400 386.400 C 36.620 386.400,36.800 386.670,36.800 387.000 C 36.800 387.373,37.178 387.600,37.800 387.600 C 38.350 387.600,38.800 387.780,38.800 388.000 C 38.800 388.220,39.070 388.400,39.400 388.400 C 39.730 388.400,40.000 388.670,40.000 389.000 C 40.000 389.419,40.422 389.600,41.400 389.600 C 42.378 389.600,42.800 389.419,42.800 389.000 C 42.800 388.670,42.993 388.400,43.229 388.400 C 43.782 388.400,44.800 387.382,44.800 386.829 C 44.800 386.593,45.004 386.400,45.253 386.400 C 45.732 386.400,47.599 384.411,47.600 383.900 C 47.600 383.735,47.793 383.600,48.029 383.600 C 48.582 383.600,49.600 382.582,49.600 382.029 C 49.600 381.793,49.793 381.600,50.029 381.600 C 50.582 381.600,51.600 380.582,51.600 380.029 C 51.600 379.793,51.793 379.600,52.029 379.600 C 52.582 379.600,53.600 378.582,53.600 378.029 C 53.600 377.793,53.793 377.600,54.029 377.600 C 54.582 377.600,55.600 376.582,55.600 376.029 C 55.600 375.793,55.870 375.600,56.200 375.600 C 56.540 375.600,56.800 375.241,56.800 374.771 C 56.800 373.886,57.666 372.800,58.371 372.800 C 58.607 372.800,58.800 372.612,58.800 372.382 C 58.800 371.839,60.639 370.000,61.182 370.000 C 61.412 370.000,61.600 369.807,61.600 369.571 C 61.600 369.018,62.618 368.000,63.171 368.000 C 63.407 368.000,63.600 367.807,63.600 367.571 C 63.600 367.018,64.618 366.000,65.171 366.000 C 65.407 366.000,65.600 365.807,65.600 365.571 C 65.600 365.018,66.618 364.000,67.171 364.000 C 67.407 364.000,67.600 363.807,67.600 363.571 C 67.600 362.997,68.626 362.000,69.218 362.000 C 69.509 362.000,69.619 361.613,69.502 361.000 C 69.374 360.329,69.490 360.000,69.855 360.000 C 70.155 360.000,70.400 359.730,70.400 359.400 C 70.400 359.070,70.588 358.800,70.818 358.800 C 71.361 358.800,73.200 356.961,73.200 356.418 C 73.200 356.188,73.393 356.000,73.629 356.000 C 74.182 356.000,75.200 354.982,75.200 354.429 C 75.200 354.193,75.393 354.000,75.629 354.000 C 76.182 354.000,77.200 352.982,77.200 352.429 C 77.200 352.193,77.393 352.000,77.629 352.000 C 78.182 352.000,79.200 350.982,79.200 350.429 C 79.200 350.193,79.393 350.000,79.629 350.000 C 80.182 350.000,81.200 348.982,81.200 348.429 C 81.200 348.193,81.393 348.000,81.629 348.000 C 82.182 348.000,83.200 346.982,83.200 346.429 C 83.200 346.193,83.470 346.000,83.800 346.000 C 84.133 346.000,84.400 345.644,84.400 345.200 C 84.400 344.760,84.580 344.400,84.800 344.400 C 85.020 344.400,85.200 344.160,85.200 343.868 C 85.200 343.575,85.650 343.094,86.200 342.800 C 86.750 342.506,87.200 342.102,87.200 341.904 C 87.200 341.405,88.250 340.400,88.771 340.400 C 89.007 340.400,89.200 340.207,89.200 339.971 C 89.200 339.418,90.218 338.400,90.771 338.400 C 91.007 338.400,91.200 338.207,91.200 337.971 C 91.200 337.418,92.218 336.400,92.771 336.400 C 93.007 336.400,93.200 336.207,93.200 335.971 C 93.200 335.418,94.218 334.400,94.771 334.400 C 95.007 334.400,95.200 334.207,95.200 333.971 C 95.200 333.418,96.218 332.400,96.771 332.400 C 97.007 332.400,97.200 332.033,97.200 331.585 C 97.200 331.137,98.010 329.983,99.000 329.021 C 99.990 328.059,100.800 327.075,100.800 326.836 C 100.800 326.596,100.993 326.400,101.229 326.400 C 101.782 326.400,102.800 325.382,102.800 324.829 C 102.800 324.593,103.070 324.400,103.400 324.400 C 103.872 324.400,104.000 324.956,104.000 327.000 C 104.000 328.467,104.174 329.600,104.400 329.600 C 104.651 329.600,104.800 332.133,104.800 336.400 C 104.800 342.178,104.890 343.200,105.400 343.200 C 105.912 343.200,106.000 344.289,106.000 350.600 C 106.000 355.267,106.148 358.000,106.400 358.000 C 106.642 358.000,106.800 359.733,106.800 362.400 L 106.800 366.800 112.800 366.800 L 118.800 366.800 118.800 376.579 L 118.800 386.359 129.600 386.387 L 140.400 386.415 140.400 377.207 C 140.400 371.336,140.545 368.000,140.800 368.000 C 141.020 368.000,141.200 367.730,141.200 367.400 C 141.200 366.870,146.622 366.800,187.600 366.800 C 228.578 366.800,234.000 366.870,234.000 367.400 C 234.000 367.730,234.180 368.000,234.400 368.000 C 234.620 368.000,234.800 368.630,234.800 369.400 C 234.800 370.378,234.981 370.800,235.400 370.800 C 235.819 370.800,236.000 371.222,236.000 372.200 C 236.000 372.970,236.180 373.600,236.400 373.600 C 236.620 373.600,236.800 374.050,236.800 374.600 C 236.800 375.222,237.027 375.600,237.400 375.600 C 237.730 375.600,238.000 375.870,238.000 376.200 C 238.000 376.530,238.180 376.800,238.400 376.800 C 238.620 376.800,238.800 377.250,238.800 377.800 C 238.800 378.350,238.993 378.800,239.229 378.800 C 239.782 378.800,240.800 379.818,240.800 380.371 C 240.800 380.607,240.993 380.800,241.229 380.800 C 241.782 380.800,242.800 381.818,242.800 382.371 C 242.800 382.607,243.070 382.800,243.400 382.800 C 243.730 382.800,244.000 382.980,244.000 383.200 C 244.000 383.420,244.431 383.600,244.957 383.600 C 245.484 383.600,246.018 383.870,246.145 384.200 C 246.271 384.530,246.651 384.800,246.987 384.800 C 247.324 384.800,247.600 384.980,247.600 385.200 C 247.600 385.420,248.050 385.600,248.600 385.600 C 249.150 385.600,249.600 385.780,249.600 386.000 C 249.600 386.220,250.050 386.400,250.600 386.400 C 251.222 386.400,251.600 386.627,251.600 387.000 C 251.600 387.480,252.200 387.600,254.600 387.600 C 256.333 387.600,257.600 387.769,257.600 388.000 C 257.600 388.222,258.667 388.400,260.000 388.400 C 261.333 388.400,262.400 388.222,262.400 388.000 C 262.400 387.774,263.533 387.600,265.000 387.600 C 267.044 387.600,267.600 387.472,267.600 387.000 C 267.600 386.581,268.022 386.400,269.000 386.400 C 269.770 386.400,270.400 386.220,270.400 386.000 C 270.400 385.780,270.850 385.600,271.400 385.600 C 271.950 385.600,272.400 385.420,272.400 385.200 C 272.400 384.980,272.735 384.800,273.144 384.800 C 273.553 384.800,274.226 384.350,274.639 383.800 C 275.052 383.250,275.617 382.800,275.895 382.800 C 276.173 382.800,276.400 382.607,276.400 382.371 C 276.400 381.818,277.418 380.800,277.971 380.800 C 278.207 380.800,278.400 380.607,278.400 380.371 C 278.400 379.818,279.418 378.800,279.971 378.800 C 280.207 378.800,280.400 378.530,280.400 378.200 C 280.400 377.870,280.580 377.600,280.800 377.600 C 281.020 377.600,281.200 377.150,281.200 376.600 C 281.200 375.978,281.427 375.600,281.800 375.600 C 282.173 375.600,282.400 375.222,282.400 374.600 C 282.400 374.050,282.580 373.600,282.800 373.600 C 283.020 373.600,283.200 373.150,283.200 372.600 C 283.200 371.978,283.427 371.600,283.800 371.600 C 284.219 371.600,284.400 371.178,284.400 370.200 C 284.400 369.430,284.580 368.800,284.800 368.800 C 285.050 368.800,285.200 366.400,285.200 362.400 C 285.200 358.400,285.050 356.000,284.800 356.000 C 284.580 356.000,284.400 355.370,284.400 354.600 C 284.400 353.622,284.219 353.200,283.800 353.200 C 283.427 353.200,283.200 352.822,283.200 352.200 C 283.200 351.650,283.020 351.200,282.800 351.200 C 282.580 351.200,282.400 350.750,282.400 350.200 C 282.400 349.578,282.173 349.200,281.800 349.200 C 281.459 349.200,281.200 348.841,281.200 348.369 C 281.200 347.525,278.378 344.400,277.616 344.400 C 277.387 344.400,277.200 344.207,277.200 343.971 C 277.200 343.418,276.182 342.400,275.629 342.400 C 275.393 342.400,275.200 342.130,275.200 341.800 C 275.200 341.460,274.841 341.200,274.371 341.200 C 273.486 341.200,272.400 340.334,272.400 339.629 C 272.400 339.393,272.220 339.200,272.000 339.200 C 271.758 339.200,271.600 337.467,271.600 334.800 C 271.600 332.133,271.758 330.400,272.000 330.400 C 272.251 330.400,272.400 327.867,272.400 323.600 C 272.400 319.333,272.549 316.800,272.800 316.800 C 273.049 316.800,273.200 314.533,273.200 310.800 C 273.200 305.733,273.293 304.800,273.800 304.800 C 274.280 304.800,274.400 304.200,274.400 301.800 C 274.400 300.067,274.569 298.800,274.800 298.800 C 275.020 298.800,275.200 299.070,275.200 299.400 C 275.200 299.730,275.393 300.000,275.629 300.000 C 276.334 300.000,277.200 301.086,277.200 301.971 C 277.200 302.441,277.460 302.800,277.800 302.800 C 278.130 302.800,278.400 302.993,278.400 303.229 C 278.400 303.782,279.418 304.800,279.971 304.800 C 280.207 304.800,280.400 304.993,280.400 305.229 C 280.400 305.695,281.385 306.800,281.800 306.800 C 282.215 306.800,283.200 307.905,283.200 308.371 C 283.200 308.607,283.393 308.800,283.629 308.800 C 284.182 308.800,285.200 309.818,285.200 310.371 C 285.200 310.607,285.393 310.800,285.629 310.800 C 286.095 310.800,287.200 311.785,287.200 312.200 C 287.200 312.615,288.305 313.600,288.771 313.600 C 289.007 313.600,289.200 313.793,289.200 314.029 C 289.200 314.582,290.218 315.600,290.771 315.600 C 291.007 315.600,291.200 315.974,291.200 316.431 C 291.200 317.275,294.022 320.400,294.784 320.400 C 295.013 320.400,295.200 320.593,295.200 320.829 C 295.200 321.382,296.218 322.400,296.771 322.400 C 297.007 322.400,297.200 322.593,297.200 322.829 C 297.200 323.064,297.457 323.514,297.771 323.829 C 298.086 324.143,298.536 324.400,298.771 324.400 C 299.007 324.400,299.200 324.596,299.200 324.836 C 299.200 325.075,300.010 326.059,301.000 327.021 C 301.990 327.983,302.800 328.957,302.800 329.185 C 302.800 329.413,302.993 329.600,303.229 329.600 C 303.934 329.600,304.800 330.686,304.800 331.571 C 304.800 332.027,304.993 332.400,305.229 332.400 C 305.782 332.400,306.800 333.418,306.800 333.971 C 306.800 334.207,306.993 334.400,307.229 334.400 C 307.782 334.400,308.800 335.418,308.800 335.971 C 308.800 336.207,308.993 336.400,309.229 336.400 C 309.782 336.400,310.800 337.418,310.800 337.971 C 310.800 338.207,310.993 338.400,311.229 338.400 C 311.695 338.400,312.800 339.385,312.800 339.800 C 312.800 340.215,313.905 341.200,314.371 341.200 C 314.607 341.200,314.800 341.393,314.800 341.629 C 314.800 342.182,315.818 343.200,316.371 343.200 C 316.607 343.200,316.800 343.470,316.800 343.800 C 316.800 344.130,316.980 344.400,317.200 344.400 C 317.420 344.400,317.600 344.760,317.600 345.200 C 317.600 345.644,317.867 346.000,318.200 346.000 C 318.530 346.000,318.800 346.193,318.800 346.429 C 318.800 346.982,319.818 348.000,320.371 348.000 C 320.607 348.000,320.800 348.193,320.800 348.429 C 320.800 348.982,321.818 350.000,322.371 350.000 C 322.607 350.000,322.800 350.193,322.800 350.429 C 322.800 350.982,323.818 352.000,324.371 352.000 C 324.607 352.000,324.800 352.193,324.800 352.429 C 324.800 352.982,325.818 354.000,326.371 354.000 C 326.607 354.000,326.800 354.189,326.800 354.419 C 326.800 354.965,330.635 358.800,331.181 358.800 C 331.411 358.800,331.600 359.070,331.600 359.400 C 331.600 359.730,331.780 360.000,332.000 360.000 C 332.220 360.000,332.400 360.450,332.400 361.000 C 332.400 361.550,332.593 362.000,332.829 362.000 C 333.382 362.000,334.400 363.018,334.400 363.571 C 334.400 363.807,334.593 364.000,334.829 364.000 C 335.382 364.000,336.400 365.018,336.400 365.571 C 336.400 365.807,336.593 366.000,336.829 366.000 C 337.382 366.000,338.400 367.018,338.400 367.571 C 338.400 367.807,338.593 368.000,338.829 368.000 C 339.295 368.000,340.400 368.985,340.400 369.400 C 340.400 369.734,341.466 370.800,341.800 370.800 C 342.215 370.800,343.200 371.905,343.200 372.371 C 343.200 372.607,343.393 372.800,343.629 372.800 C 344.334 372.800,345.200 373.886,345.200 374.771 C 345.200 375.241,345.460 375.600,345.800 375.600 C 346.130 375.600,346.400 375.793,346.400 376.029 C 346.400 376.582,347.418 377.600,347.971 377.600 C 348.207 377.600,348.400 377.793,348.400 378.029 C 348.400 378.582,349.418 379.600,349.971 379.600 C 350.207 379.600,350.400 379.793,350.400 380.029 C 350.400 380.264,350.657 380.714,350.971 381.029 C 351.286 381.343,351.736 381.600,351.971 381.600 C 352.207 381.600,352.400 381.782,352.400 382.005 C 352.400 382.526,356.283 386.400,356.805 386.400 C 357.022 386.400,357.200 386.593,357.200 386.829 C 357.200 387.064,357.457 387.514,357.771 387.829 C 358.086 388.143,358.536 388.400,358.771 388.400 C 359.007 388.400,359.200 388.670,359.200 389.000 C 359.200 389.419,359.622 389.600,360.600 389.600 C 361.578 389.600,362.000 389.419,362.000 389.000 C 362.000 388.670,362.270 388.400,362.600 388.400 C 362.930 388.400,363.200 388.220,363.200 388.000 C 363.200 387.780,363.650 387.600,364.200 387.600 C 364.822 387.600,365.200 387.373,365.200 387.000 C 365.200 386.670,365.380 386.400,365.600 386.400 C 365.820 386.400,366.000 385.847,366.000 385.171 C 366.000 383.946,365.241 382.800,364.429 382.800 C 364.193 382.800,364.000 382.607,364.000 382.371 C 364.000 382.136,363.743 381.686,363.429 381.371 C 363.114 381.057,362.664 380.800,362.429 380.800 C 362.193 380.800,362.000 380.607,362.000 380.371 C 362.000 380.136,361.743 379.686,361.429 379.371 C 361.114 379.057,360.664 378.800,360.429 378.800 C 360.193 378.800,360.000 378.607,360.000 378.371 C 360.000 378.136,359.743 377.686,359.429 377.371 C 359.114 377.057,358.664 376.800,358.429 376.800 C 358.193 376.800,358.000 376.530,358.000 376.200 C 358.000 375.870,357.820 375.600,357.600 375.600 C 357.380 375.600,357.200 375.150,357.200 374.600 C 357.200 373.800,357.000 373.600,356.200 373.600 C 355.467 373.600,355.200 373.387,355.200 372.800 C 355.200 372.356,354.933 372.000,354.600 372.000 C 354.270 372.000,354.000 371.770,354.000 371.488 C 354.000 371.207,353.640 370.717,353.200 370.400 C 352.760 370.083,352.400 369.593,352.400 369.312 C 352.400 369.030,352.207 368.800,351.971 368.800 C 351.736 368.800,351.286 368.543,350.971 368.229 C 350.657 367.914,350.400 367.464,350.400 367.229 C 350.400 366.993,350.207 366.800,349.971 366.800 C 349.418 366.800,348.400 365.782,348.400 365.229 C 348.400 364.993,348.207 364.800,347.971 364.800 C 347.418 364.800,346.400 363.782,346.400 363.229 C 346.400 362.993,346.207 362.800,345.971 362.800 C 345.418 362.800,344.400 361.782,344.400 361.229 C 344.400 360.993,344.130 360.800,343.800 360.800 C 343.470 360.800,343.194 360.485,343.187 360.100 C 343.174 359.352,342.298 358.000,341.827 358.000 C 341.473 358.000,340.400 356.948,340.400 356.600 C 340.400 356.185,339.295 355.200,338.829 355.200 C 338.593 355.200,338.400 355.007,338.400 354.771 C 338.400 354.218,337.382 353.200,336.829 353.200 C 336.593 353.200,336.400 353.007,336.400 352.771 C 336.400 352.218,335.382 351.200,334.829 351.200 C 334.593 351.200,334.400 351.007,334.400 350.771 C 334.400 350.218,333.382 349.200,332.829 349.200 C 332.593 349.200,332.400 349.007,332.400 348.771 C 332.400 348.218,331.382 347.200,330.829 347.200 C 330.593 347.200,330.400 346.930,330.400 346.600 C 330.400 346.270,330.220 346.000,330.000 346.000 C 329.780 346.000,329.600 345.640,329.600 345.200 C 329.600 344.756,329.333 344.400,329.000 344.400 C 328.670 344.400,328.400 344.207,328.400 343.971 C 328.400 343.418,327.382 342.400,326.829 342.400 C 326.593 342.400,326.400 342.170,326.400 341.888 C 326.400 341.607,326.040 341.117,325.600 340.800 C 325.160 340.483,324.800 339.993,324.800 339.712 C 324.800 339.430,324.607 339.200,324.371 339.200 C 323.818 339.200,322.800 338.182,322.800 337.629 C 322.800 337.393,322.607 337.200,322.371 337.200 C 321.818 337.200,320.800 336.182,320.800 335.629 C 320.800 335.393,320.613 335.200,320.385 335.200 C 320.157 335.200,319.183 334.390,318.221 333.400 C 317.259 332.410,316.275 331.600,316.036 331.600 C 315.796 331.600,315.600 331.150,315.600 330.600 C 315.600 330.050,315.420 329.600,315.200 329.600 C 314.980 329.600,314.800 329.330,314.800 329.000 C 314.800 328.670,314.607 328.400,314.371 328.400 C 313.905 328.400,312.800 327.415,312.800 327.000 C 312.800 326.585,311.695 325.600,311.229 325.600 C 310.993 325.600,310.800 325.407,310.800 325.171 C 310.800 324.936,310.543 324.486,310.229 324.171 C 309.914 323.857,309.464 323.600,309.229 323.600 C 308.993 323.600,308.800 323.407,308.800 323.171 C 308.800 322.936,308.543 322.486,308.229 322.171 C 307.914 321.857,307.464 321.600,307.229 321.600 C 306.993 321.600,306.800 321.407,306.800 321.171 C 306.800 320.705,305.815 319.600,305.400 319.600 C 304.985 319.600,304.000 318.495,304.000 318.029 C 304.000 317.793,303.807 317.600,303.571 317.600 C 302.866 317.600,302.000 316.514,302.000 315.629 C 302.000 315.159,301.740 314.800,301.400 314.800 C 301.070 314.800,300.800 314.604,300.800 314.364 C 300.800 314.125,299.990 313.141,299.000 312.179 C 298.010 311.217,297.200 310.243,297.200 310.015 C 297.200 309.787,297.013 309.600,296.785 309.600 C 296.557 309.600,295.583 308.790,294.621 307.800 C 293.659 306.810,292.675 306.000,292.436 306.000 C 292.196 306.000,292.000 305.807,292.000 305.571 C 292.000 305.018,290.982 304.000,290.429 304.000 C 290.193 304.000,290.000 303.807,290.000 303.571 C 290.000 303.018,288.982 302.000,288.429 302.000 C 288.193 302.000,288.000 301.550,288.000 301.000 C 288.000 300.450,287.820 300.000,287.600 300.000 C 287.380 300.000,287.200 299.807,287.200 299.571 C 287.200 299.018,286.182 298.000,285.629 298.000 C 285.393 298.000,285.200 297.807,285.200 297.571 C 285.200 297.018,284.182 296.000,283.629 296.000 C 283.393 296.000,283.200 295.807,283.200 295.571 C 283.200 295.105,282.215 294.000,281.800 294.000 C 281.385 294.000,280.400 292.895,280.400 292.429 C 280.400 292.193,280.207 292.000,279.971 292.000 C 279.736 292.000,279.286 291.743,278.971 291.429 C 278.657 291.114,278.400 290.664,278.400 290.429 C 278.400 290.193,278.207 290.000,277.971 290.000 C 277.736 290.000,277.286 289.743,276.971 289.429 C 276.657 289.114,276.400 288.664,276.400 288.429 C 276.400 288.193,276.130 288.000,275.800 288.000 C 275.296 288.000,275.200 287.133,275.200 282.600 C 275.200 278.067,275.296 277.200,275.800 277.200 C 276.308 277.200,276.400 276.222,276.400 270.800 C 276.400 266.800,276.550 264.400,276.800 264.400 C 277.051 264.400,277.200 261.867,277.200 257.600 C 277.200 251.822,277.290 250.800,277.800 250.800 C 278.310 250.800,278.400 249.756,278.400 243.800 C 278.400 239.400,278.549 236.800,278.800 236.800 C 279.051 236.800,279.200 234.267,279.200 230.000 C 279.200 224.222,279.290 223.200,279.800 223.200 C 280.307 223.200,280.400 222.267,280.400 217.200 C 280.400 213.467,280.551 211.200,280.800 211.200 C 281.051 211.200,281.200 208.667,281.200 204.400 C 281.200 198.622,281.290 197.600,281.800 197.600 C 282.312 197.600,282.400 196.511,282.400 190.200 C 282.400 185.533,282.548 182.800,282.800 182.800 C 283.050 182.800,283.200 180.400,283.200 176.400 C 283.200 170.978,283.292 170.000,283.800 170.000 C 284.308 170.000,284.400 169.022,284.400 163.600 C 284.400 159.600,284.550 157.200,284.800 157.200 C 285.052 157.200,285.200 154.481,285.200 149.843 C 285.200 143.672,285.297 142.448,285.800 142.255 C 286.177 142.111,286.400 141.499,286.400 140.613 L 286.400 139.200 294.600 139.200 C 299.800 139.200,302.800 139.054,302.800 138.800 C 302.800 138.580,303.250 138.400,303.800 138.400 C 304.422 138.400,304.800 138.173,304.800 137.800 C 304.800 137.427,305.178 137.200,305.800 137.200 C 306.350 137.200,306.800 137.020,306.800 136.800 C 306.800 136.580,307.172 136.400,307.626 136.400 C 308.708 136.400,312.800 132.308,312.800 131.226 C 312.800 130.772,312.980 130.400,313.200 130.400 C 313.420 130.400,313.600 129.950,313.600 129.400 C 313.600 128.778,313.827 128.400,314.200 128.400 C 314.573 128.400,314.800 128.022,314.800 127.400 C 314.800 126.850,314.980 126.400,315.200 126.400 C 315.448 126.400,315.600 124.200,315.600 120.600 C 315.600 117.000,315.448 114.800,315.200 114.800 C 314.980 114.800,314.800 114.350,314.800 113.800 C 314.800 113.178,314.573 112.800,314.200 112.800 C 313.827 112.800,313.600 112.422,313.600 111.800 C 313.600 111.250,313.420 110.800,313.200 110.800 C 312.980 110.800,312.800 110.427,312.800 109.971 C 312.800 109.086,311.934 108.000,311.229 108.000 C 310.993 108.000,310.800 107.807,310.800 107.571 C 310.800 107.018,309.782 106.000,309.229 106.000 C 308.993 106.000,308.800 105.550,308.800 105.000 C 308.800 104.378,309.027 104.000,309.400 104.000 C 309.730 104.000,310.000 103.807,310.000 103.571 C 310.000 103.018,311.018 102.000,311.571 102.000 C 311.807 102.000,312.000 101.770,312.000 101.488 C 312.000 101.207,312.360 100.717,312.800 100.400 C 313.240 100.083,313.600 99.593,313.600 99.312 C 313.600 99.030,313.793 98.800,314.029 98.800 C 314.734 98.800,315.600 97.714,315.600 96.829 C 315.600 96.373,315.793 96.000,316.029 96.000 C 316.582 96.000,317.600 94.982,317.600 94.429 C 317.600 94.193,317.793 94.000,318.029 94.000 C 318.582 94.000,319.600 92.982,319.600 92.429 C 319.600 92.193,319.793 92.000,320.029 92.000 C 320.582 92.000,321.600 90.982,321.600 90.429 C 321.600 90.193,321.793 90.000,322.029 90.000 C 322.582 90.000,323.600 88.982,323.600 88.429 C 323.600 88.193,323.793 88.000,324.029 88.000 C 324.495 88.000,325.600 87.015,325.600 86.600 C 325.600 86.266,326.666 85.200,327.000 85.200 C 327.415 85.200,328.400 84.095,328.400 83.629 C 328.400 83.393,328.670 83.200,329.000 83.200 C 329.340 83.200,329.600 82.841,329.600 82.371 C 329.600 81.486,330.466 80.400,331.171 80.400 C 331.407 80.400,331.600 80.207,331.600 79.971 C 331.600 79.418,332.618 78.400,333.171 78.400 C 333.407 78.400,333.600 78.207,333.600 77.971 C 333.600 77.418,334.618 76.400,335.171 76.400 C 335.407 76.400,335.600 76.207,335.600 75.971 C 335.600 75.418,336.618 74.400,337.171 74.400 C 337.407 74.400,337.600 74.229,337.600 74.019 C 337.600 73.523,341.523 69.600,342.019 69.600 C 342.229 69.600,342.400 69.330,342.400 69.000 C 342.400 68.670,342.580 68.400,342.800 68.400 C 343.020 68.400,343.200 67.950,343.200 67.400 C 343.200 66.850,343.393 66.400,343.629 66.400 C 344.182 66.400,345.200 65.382,345.200 64.829 C 345.200 64.593,345.393 64.400,345.629 64.400 C 346.182 64.400,347.200 63.382,347.200 62.829 C 347.200 62.593,347.393 62.400,347.629 62.400 C 348.182 62.400,349.200 61.382,349.200 60.829 C 349.200 60.593,349.393 60.400,349.629 60.400 C 350.182 60.400,351.200 59.382,351.200 58.829 C 351.200 58.593,351.388 58.400,351.618 58.400 C 352.161 58.400,354.000 56.561,354.000 56.018 C 354.000 55.788,354.270 55.600,354.600 55.600 C 354.973 55.600,355.200 55.222,355.200 54.600 C 355.200 53.800,355.400 53.600,356.200 53.600 C 356.945 53.600,357.200 53.389,357.200 52.771 C 357.200 51.886,358.066 50.800,358.771 50.800 C 359.007 50.800,359.200 50.607,359.200 50.371 C 359.200 49.818,360.218 48.800,360.771 48.800 C 361.007 48.800,361.200 48.607,361.200 48.371 C 361.200 47.818,362.218 46.800,362.771 46.800 C 363.007 46.800,363.200 46.607,363.200 46.371 C 363.200 45.905,364.185 44.800,364.600 44.800 C 365.262 44.800,366.000 43.535,366.000 42.400 C 366.000 40.950,365.220 40.000,364.029 40.000 C 363.559 40.000,363.200 39.740,363.200 39.400 C 363.200 39.070,362.930 38.800,362.600 38.800 C 362.270 38.800,362.000 38.620,362.000 38.400 C 362.000 38.180,361.370 38.000,360.600 38.000 C 359.830 38.000,359.200 38.180,359.200 38.400 C 359.200 38.620,358.930 38.800,358.600 38.800 C 358.270 38.800,358.000 38.993,358.000 39.229 C 358.000 39.782,356.982 40.800,356.429 40.800 C 356.193 40.800,356.000 40.977,356.000 41.194 C 356.000 41.707,350.107 47.600,349.594 47.600 C 349.377 47.600,349.200 47.793,349.200 48.029 C 349.200 48.582,348.182 49.600,347.629 49.600 C 347.393 49.600,347.200 49.793,347.200 50.029 C 347.200 50.582,346.182 51.600,345.629 51.600 C 345.393 51.600,345.200 52.050,345.200 52.600 C 345.200 53.150,345.020 53.600,344.800 53.600 C 344.580 53.600,344.400 53.870,344.400 54.200 C 344.400 54.530,344.207 54.800,343.971 54.800 C 343.418 54.800,342.400 55.818,342.400 56.371 C 342.400 56.607,342.207 56.800,341.971 56.800 C 341.505 56.800,340.400 57.785,340.400 58.200 C 340.400 58.534,339.334 59.600,339.000 59.600 C 338.585 59.600,337.600 60.705,337.600 61.171 C 337.600 61.407,337.407 61.600,337.171 61.600 C 336.618 61.600,335.600 62.618,335.600 63.171 C 335.600 63.407,335.407 63.600,335.171 63.600 C 334.618 63.600,333.600 64.618,333.600 65.171 C 333.600 65.407,333.330 65.600,333.000 65.600 C 332.660 65.600,332.400 65.959,332.400 66.429 C 332.400 67.314,331.534 68.400,330.829 68.400 C 330.593 68.400,330.400 68.593,330.400 68.829 C 330.400 69.382,329.382 70.400,328.829 70.400 C 328.593 70.400,328.400 70.588,328.400 70.818 C 328.400 71.361,326.561 73.200,326.018 73.200 C 325.788 73.200,325.600 73.393,325.600 73.629 C 325.600 74.182,324.582 75.200,324.029 75.200 C 323.793 75.200,323.600 75.393,323.600 75.629 C 323.600 76.182,322.582 77.200,322.029 77.200 C 321.793 77.200,321.600 77.393,321.600 77.629 C 321.600 78.182,320.582 79.200,320.029 79.200 C 319.793 79.200,319.600 79.393,319.600 79.629 C 319.600 80.182,318.582 81.200,318.029 81.200 C 317.793 81.200,317.600 81.650,317.600 82.200 C 317.600 82.750,317.420 83.200,317.200 83.200 C 316.980 83.200,316.800 83.470,316.800 83.800 C 316.800 84.130,316.611 84.400,316.381 84.400 C 315.835 84.400,312.000 88.235,312.000 88.781 C 312.000 89.011,311.807 89.200,311.571 89.200 C 311.018 89.200,310.000 90.218,310.000 90.771 C 310.000 91.007,309.807 91.200,309.571 91.200 C 309.018 91.200,308.000 92.218,308.000 92.771 C 308.000 93.007,307.807 93.200,307.571 93.200 C 307.018 93.200,306.000 94.218,306.000 94.771 C 306.000 95.007,305.730 95.200,305.400 95.200 C 305.060 95.200,304.800 95.559,304.800 96.029 C 304.800 96.813,303.957 98.000,303.400 98.000 C 302.985 98.000,302.000 99.105,302.000 99.571 C 302.000 99.807,301.807 100.000,301.571 100.000 C 301.018 100.000,300.000 101.018,300.000 101.571 C 300.000 101.855,298.173 102.000,294.600 102.000 L 289.200 102.000 289.200 95.600 C 289.200 91.600,289.350 89.200,289.600 89.200 C 289.850 89.200,290.000 86.800,290.000 82.800 C 290.000 77.378,290.092 76.400,290.600 76.400 C 291.101 76.400,291.200 75.578,291.200 71.400 C 291.200 68.111,291.053 66.400,290.771 66.400 C 290.218 66.400,289.200 65.382,289.200 64.829 C 289.200 64.593,288.750 64.400,288.200 64.400 C 287.650 64.400,287.200 64.220,287.200 64.000 C 287.200 63.780,286.750 63.600,286.200 63.600 C 285.578 63.600,285.200 63.373,285.200 63.000 C 285.200 62.581,284.778 62.400,283.800 62.400 C 283.030 62.400,282.400 62.220,282.400 62.000 C 282.400 61.780,281.950 61.600,281.400 61.600 C 280.778 61.600,280.400 61.373,280.400 61.000 C 280.400 60.567,279.956 60.400,278.800 60.400 C 277.920 60.400,277.200 60.220,277.200 60.000 C 277.200 59.780,276.570 59.600,275.800 59.600 C 275.030 59.600,274.400 59.420,274.400 59.200 C 274.400 58.980,273.770 58.800,273.000 58.800 C 272.022 58.800,271.600 58.619,271.600 58.200 C 271.600 57.767,271.156 57.600,270.000 57.600 C 269.120 57.600,268.400 57.420,268.400 57.200 C 268.400 56.980,267.500 56.800,266.400 56.800 C 264.889 56.800,264.400 56.653,264.400 56.200 C 264.400 55.747,263.911 55.600,262.400 55.600 C 261.300 55.600,260.400 55.420,260.400 55.200 C 260.400 54.980,259.590 54.800,258.600 54.800 C 257.267 54.800,256.800 54.644,256.800 54.200 C 256.800 53.720,256.200 53.600,253.800 53.600 C 252.067 53.600,250.800 53.431,250.800 53.200 C 250.800 52.969,249.533 52.800,247.800 52.800 C 245.400 52.800,244.800 52.680,244.800 52.200 C 244.800 51.720,244.200 51.600,241.800 51.600 C 240.067 51.600,238.800 51.431,238.800 51.200 C 238.800 50.961,237.267 50.800,235.000 50.800 C 231.889 50.800,231.200 50.691,231.200 50.200 C 231.200 49.695,230.311 49.600,225.600 49.600 C 222.133 49.600,220.000 49.448,220.000 49.200 C 220.000 48.965,218.600 48.800,216.600 48.800 C 213.240 48.800,213.200 48.788,213.200 47.800 C 213.200 47.250,213.020 46.800,212.800 46.800 C 212.580 46.800,212.400 46.350,212.400 45.800 C 212.400 45.250,212.207 44.800,211.971 44.800 C 211.418 44.800,210.400 43.782,210.400 43.229 C 210.400 42.993,209.950 42.800,209.400 42.800 C 208.850 42.800,208.400 42.620,208.400 42.400 C 208.400 42.180,207.770 42.000,207.000 42.000 C 206.022 42.000,205.600 41.819,205.600 41.400 C 205.600 40.876,203.400 40.800,188.200 40.800 C 173.000 40.800,170.800 40.876,170.800 41.400 C 170.800 41.819,170.378 42.000,169.400 42.000 C 168.630 42.000,168.000 42.180,168.000 42.400 C 168.000 42.620,167.550 42.800,167.000 42.800 C 166.450 42.800,166.000 42.993,166.000 43.229 C 166.000 43.710,165.010 44.800,164.573 44.800 C 164.102 44.800,163.226 46.152,163.213 46.900 C 163.206 47.285,162.930 47.600,162.600 47.600 C 162.270 47.600,162.000 47.870,162.000 48.200 C 162.000 48.667,161.467 48.800,159.600 48.800 C 158.267 48.800,157.200 48.978,157.200 49.200 C 157.200 49.447,155.133 49.600,151.800 49.600 C 147.267 49.600,146.400 49.696,146.400 50.200 C 146.400 50.693,145.689 50.800,142.400 50.800 C 140.000 50.800,138.400 50.960,138.400 51.200 C 138.400 51.431,137.133 51.600,135.400 51.600 C 133.000 51.600,132.400 51.720,132.400 52.200 C 132.400 52.676,131.822 52.800,129.600 52.800 C 128.000 52.800,126.800 52.971,126.800 53.200 C 126.800 53.431,125.533 53.600,123.800 53.600 C 121.400 53.600,120.800 53.720,120.800 54.200 C 120.800 54.653,120.311 54.800,118.800 54.800 C 117.700 54.800,116.800 54.980,116.800 55.200 C 116.800 55.420,115.900 55.600,114.800 55.600 C 113.289 55.600,112.800 55.747,112.800 56.200 C 112.800 56.653,112.311 56.800,110.800 56.800 C 109.700 56.800,108.800 56.980,108.800 57.200 C 108.800 57.420,108.620 57.600,108.400 57.600 C 108.169 57.600,108.000 56.333,108.000 54.600 L 108.000 51.600 102.600 51.600 L 97.200 51.600 97.200 56.600 L 97.200 61.600 95.600 61.600 C 94.720 61.600,94.000 61.780,94.000 62.000 C 94.000 62.220,93.550 62.400,93.000 62.400 C 92.378 62.400,92.000 62.627,92.000 63.000 C 92.000 63.373,91.622 63.600,91.000 63.600 C 90.450 63.600,90.000 63.780,90.000 64.000 C 90.000 64.220,89.550 64.400,89.000 64.400 C 88.450 64.400,88.000 64.630,88.000 64.912 C 88.000 65.193,87.640 65.683,87.200 66.000 C 86.302 66.647,85.920 80.400,86.800 80.400 C 87.022 80.400,87.200 81.467,87.200 82.800 C 87.200 84.133,87.022 85.200,86.800 85.200 C 86.580 85.200,86.400 85.020,86.400 84.800 C 86.400 84.580,86.130 84.400,85.800 84.400 C 85.470 84.400,85.200 84.130,85.200 83.800 C 85.200 83.470,85.020 83.200,84.800 83.200 C 84.580 83.200,84.400 82.750,84.400 82.200 C 84.400 81.650,84.207 81.200,83.971 81.200 C 83.736 81.200,83.286 80.943,82.971 80.629 C 82.657 80.314,82.400 79.864,82.400 79.629 C 82.400 79.393,82.207 79.200,81.971 79.200 C 81.736 79.200,81.286 78.943,80.971 78.629 C 80.657 78.314,80.400 77.864,80.400 77.629 C 80.400 77.393,80.207 77.200,79.971 77.200 C 79.418 77.200,78.400 76.182,78.400 75.629 C 78.400 75.393,78.207 75.200,77.971 75.200 C 77.736 75.200,77.286 74.943,76.971 74.629 C 76.657 74.314,76.400 73.864,76.400 73.629 C 76.400 73.393,76.170 73.200,75.888 73.200 C 75.607 73.200,75.117 72.840,74.800 72.400 C 74.483 71.960,73.993 71.600,73.712 71.600 C 73.430 71.600,73.200 71.370,73.200 71.088 C 73.200 70.807,72.840 70.317,72.400 70.000 C 71.960 69.683,71.600 69.193,71.600 68.912 C 71.600 68.630,71.407 68.400,71.171 68.400 C 70.466 68.400,69.600 67.314,69.600 66.429 C 69.600 65.959,69.340 65.600,69.000 65.600 C 68.670 65.600,68.400 65.407,68.400 65.171 C 68.400 64.618,67.382 63.600,66.829 63.600 C 66.593 63.600,66.400 63.407,66.400 63.171 C 66.400 62.936,66.143 62.486,65.829 62.171 C 65.514 61.857,65.064 61.600,64.829 61.600 C 64.593 61.600,64.400 61.407,64.400 61.171 C 64.400 60.705,63.415 59.600,63.000 59.600 C 62.585 59.600,61.600 58.495,61.600 58.029 C 61.600 57.793,61.407 57.600,61.171 57.600 C 60.705 57.600,59.600 56.615,59.600 56.200 C 59.600 55.785,58.495 54.800,58.029 54.800 C 57.793 54.800,57.600 54.530,57.600 54.200 C 57.600 53.870,57.420 53.600,57.200 53.600 C 56.980 53.600,56.800 53.150,56.800 52.600 C 56.800 52.050,56.607 51.600,56.371 51.600 C 55.818 51.600,54.800 50.582,54.800 50.029 C 54.800 49.793,54.607 49.600,54.371 49.600 C 53.818 49.600,52.800 48.582,52.800 48.029 C 52.800 47.793,52.613 47.600,52.385 47.600 C 52.157 47.600,51.183 46.790,50.221 45.800 C 49.259 44.810,48.275 44.000,48.036 44.000 C 47.796 44.000,47.600 43.804,47.600 43.564 C 47.600 43.325,46.790 42.341,45.800 41.379 C 44.810 40.417,44.000 39.443,44.000 39.215 C 44.000 38.987,43.730 38.800,43.400 38.800 C 43.070 38.800,42.800 38.620,42.800 38.400 C 42.800 38.180,42.170 38.000,41.400 38.000 C 40.630 38.000,40.000 38.180,40.000 38.400 M162.000 57.200 C 162.000 57.420,162.193 57.600,162.429 57.600 C 162.982 57.600,164.000 58.618,164.000 59.171 C 164.000 59.407,164.193 59.600,164.429 59.600 C 164.910 59.600,166.000 60.590,166.000 61.027 C 166.000 61.498,167.352 62.374,168.100 62.387 C 168.485 62.394,168.800 62.670,168.800 63.000 C 168.800 63.525,171.156 63.600,187.600 63.600 C 204.044 63.600,206.400 63.525,206.400 63.000 C 206.400 62.627,206.778 62.400,207.400 62.400 C 207.950 62.400,208.400 62.220,208.400 62.000 C 208.400 61.780,208.850 61.600,209.400 61.600 C 209.950 61.600,210.400 61.407,210.400 61.171 C 210.400 60.618,211.418 59.600,211.971 59.600 C 212.207 59.600,212.400 59.330,212.400 59.000 C 212.400 58.670,212.580 58.400,212.800 58.400 C 213.020 58.400,213.200 58.040,213.200 57.600 C 213.200 57.013,213.467 56.800,214.200 56.800 C 214.750 56.800,215.200 56.980,215.200 57.200 C 215.200 57.449,217.467 57.600,221.200 57.600 C 224.933 57.600,227.200 57.751,227.200 58.000 C 227.200 58.239,228.733 58.400,231.000 58.400 C 234.111 58.400,234.800 58.509,234.800 59.000 C 234.800 59.489,235.467 59.600,238.400 59.600 C 240.533 59.600,242.000 59.763,242.000 60.000 C 242.000 60.229,243.200 60.400,244.800 60.400 C 247.022 60.400,247.600 60.524,247.600 61.000 C 247.600 61.472,248.156 61.600,250.200 61.600 C 251.667 61.600,252.800 61.774,252.800 62.000 C 252.800 62.222,253.867 62.400,255.200 62.400 C 257.067 62.400,257.600 62.533,257.600 63.000 C 257.600 63.453,258.089 63.600,259.600 63.600 C 260.700 63.600,261.600 63.780,261.600 64.000 C 261.600 64.220,262.500 64.400,263.600 64.400 C 265.111 64.400,265.600 64.547,265.600 65.000 C 265.600 65.419,266.022 65.600,267.000 65.600 C 267.770 65.600,268.400 65.780,268.400 66.000 C 268.400 66.220,269.120 66.400,270.000 66.400 C 271.156 66.400,271.600 66.567,271.600 67.000 C 271.600 67.419,272.022 67.600,273.000 67.600 C 273.770 67.600,274.400 67.780,274.400 68.000 C 274.400 68.220,275.030 68.400,275.800 68.400 C 276.778 68.400,277.200 68.581,277.200 69.000 C 277.200 69.373,277.578 69.600,278.200 69.600 C 278.750 69.600,279.200 69.780,279.200 70.000 C 279.200 70.220,279.560 70.400,280.000 70.400 C 282.010 70.400,282.400 71.571,282.400 77.600 C 282.400 82.311,282.305 83.200,281.800 83.200 C 281.470 83.200,281.200 83.470,281.200 83.800 C 281.200 84.332,270.600 84.400,188.200 84.400 L 95.200 84.400 95.200 78.800 C 95.200 74.089,95.105 73.200,94.600 73.200 C 93.736 73.200,93.862 71.896,94.805 71.089 C 95.247 70.710,96.147 70.400,96.805 70.400 C 97.462 70.400,98.000 70.220,98.000 70.000 C 98.000 69.780,98.450 69.600,99.000 69.600 C 99.622 69.600,100.000 69.373,100.000 69.000 C 100.000 68.581,100.422 68.400,101.400 68.400 C 102.170 68.400,102.800 68.220,102.800 68.000 C 102.800 67.780,103.520 67.600,104.400 67.600 C 105.556 67.600,106.000 67.433,106.000 67.000 C 106.000 66.581,106.422 66.400,107.400 66.400 C 108.170 66.400,108.800 66.220,108.800 66.000 C 108.800 65.780,109.520 65.600,110.400 65.600 C 111.556 65.600,112.000 65.433,112.000 65.000 C 112.000 64.557,112.463 64.400,113.767 64.400 C 114.738 64.400,115.593 64.230,115.667 64.021 C 115.740 63.813,116.655 63.600,117.700 63.547 C 118.953 63.483,119.600 63.272,119.600 62.925 C 119.600 62.545,120.320 62.400,122.200 62.400 C 123.667 62.400,124.800 62.226,124.800 62.000 C 124.800 61.778,125.867 61.600,127.200 61.600 C 129.067 61.600,129.600 61.467,129.600 61.000 C 129.600 60.520,130.200 60.400,132.600 60.400 C 134.333 60.400,135.600 60.231,135.600 60.000 C 135.600 59.765,137.000 59.600,139.000 59.600 C 141.756 59.600,142.400 59.486,142.400 59.000 C 142.400 58.507,143.111 58.400,146.400 58.400 C 148.800 58.400,150.400 58.240,150.400 58.000 C 150.400 57.753,152.467 57.600,155.800 57.600 C 159.133 57.600,161.200 57.447,161.200 57.200 C 161.200 56.980,161.380 56.800,161.600 56.800 C 161.820 56.800,162.000 56.980,162.000 57.200 M281.200 95.000 C 281.200 96.733,281.031 98.000,280.800 98.000 C 280.551 98.000,280.400 100.267,280.400 104.000 C 280.400 109.067,280.307 110.000,279.800 110.000 C 279.291 110.000,279.200 111.012,279.200 116.705 C 279.200 123.390,279.197 123.412,278.200 124.161 C 277.650 124.574,277.200 125.247,277.200 125.656 C 277.200 126.065,277.020 126.400,276.800 126.400 C 276.580 126.400,276.400 126.670,276.400 127.000 C 276.400 127.330,276.207 127.600,275.971 127.600 C 275.505 127.600,274.400 128.585,274.400 129.000 C 274.400 129.415,273.295 130.400,272.829 130.400 C 272.593 130.400,272.400 130.593,272.400 130.829 C 272.400 131.382,271.382 132.400,270.829 132.400 C 270.593 132.400,270.400 132.593,270.400 132.829 C 270.400 133.382,269.382 134.400,268.829 134.400 C 268.593 134.400,268.400 134.593,268.400 134.829 C 268.400 135.295,267.415 136.400,267.000 136.400 C 266.585 136.400,265.600 137.505,265.600 137.971 C 265.600 138.207,265.407 138.400,265.171 138.400 C 264.466 138.400,263.600 139.486,263.600 140.371 C 263.600 140.841,263.340 141.200,263.000 141.200 C 262.670 141.200,262.400 141.387,262.400 141.615 C 262.400 141.843,261.590 142.817,260.600 143.779 C 259.610 144.741,258.800 145.725,258.800 145.964 C 258.800 146.204,258.607 146.400,258.371 146.400 C 257.818 146.400,256.800 147.418,256.800 147.971 C 256.800 148.207,256.604 148.400,256.364 148.400 C 256.125 148.400,255.141 149.210,254.179 150.200 C 253.217 151.190,252.243 152.000,252.015 152.000 C 251.787 152.000,251.600 152.193,251.600 152.429 C 251.600 152.982,250.582 154.000,250.029 154.000 C 249.793 154.000,249.600 154.450,249.600 155.000 C 249.600 155.550,249.420 156.000,249.200 156.000 C 248.980 156.000,248.800 156.270,248.800 156.600 C 248.800 156.930,248.607 157.200,248.371 157.200 C 247.905 157.200,246.800 158.185,246.800 158.600 C 246.800 159.015,245.695 160.000,245.229 160.000 C 244.993 160.000,244.800 160.193,244.800 160.429 C 244.800 160.982,243.782 162.000,243.229 162.000 C 242.993 162.000,242.800 162.193,242.800 162.429 C 242.800 162.895,241.815 164.000,241.400 164.000 C 240.985 164.000,240.000 165.105,240.000 165.571 C 240.000 165.807,239.807 166.000,239.571 166.000 C 239.018 166.000,238.000 167.018,238.000 167.571 C 238.000 167.807,237.730 168.000,237.400 168.000 C 237.060 168.000,236.800 168.359,236.800 168.829 C 236.800 169.714,235.934 170.800,235.229 170.800 C 234.993 170.800,234.800 171.030,234.800 171.312 C 234.800 171.593,234.440 172.083,234.000 172.400 C 233.560 172.717,233.200 173.207,233.200 173.488 C 233.200 173.770,233.007 174.000,232.771 174.000 C 232.218 174.000,231.200 175.018,231.200 175.571 C 231.200 175.807,230.970 176.000,230.688 176.000 C 230.407 176.000,229.917 176.360,229.600 176.800 C 229.283 177.240,228.793 177.600,228.512 177.600 C 228.230 177.600,228.000 177.793,228.000 178.029 C 228.000 178.582,226.982 179.600,226.429 179.600 C 226.193 179.600,226.000 179.793,226.000 180.029 C 226.000 180.582,224.982 181.600,224.429 181.600 C 224.193 181.600,224.000 181.870,224.000 182.200 C 224.000 182.530,223.820 182.800,223.600 182.800 C 223.380 182.800,223.200 183.250,223.200 183.800 C 223.200 184.350,223.007 184.800,222.771 184.800 C 222.250 184.800,221.200 185.805,221.200 186.304 C 221.200 186.502,220.750 186.906,220.200 187.200 C 219.650 187.494,219.200 187.898,219.200 188.096 C 219.200 188.510,218.185 189.600,217.800 189.600 C 217.385 189.600,216.400 190.705,216.400 191.171 C 216.400 191.407,216.207 191.600,215.971 191.600 C 215.418 191.600,214.400 192.618,214.400 193.171 C 214.400 193.407,214.207 193.600,213.971 193.600 C 213.418 193.600,212.400 194.618,212.400 195.171 C 212.400 195.407,212.207 195.600,211.971 195.600 C 211.418 195.600,210.400 196.618,210.400 197.171 C 210.400 197.407,210.130 197.600,209.800 197.600 C 209.460 197.600,209.200 197.959,209.200 198.429 C 209.200 199.314,208.334 200.400,207.629 200.400 C 207.393 200.400,207.200 200.588,207.200 200.818 C 207.200 201.361,205.361 203.200,204.818 203.200 C 204.588 203.200,204.400 203.393,204.400 203.629 C 204.400 204.182,203.382 205.200,202.829 205.200 C 202.593 205.200,202.400 205.393,202.400 205.629 C 202.400 206.095,201.415 207.200,201.000 207.200 C 200.585 207.200,199.600 206.095,199.600 205.629 C 199.600 205.393,199.407 205.200,199.171 205.200 C 198.618 205.200,197.600 204.182,197.600 203.629 C 197.600 203.393,197.370 203.200,197.088 203.200 C 196.807 203.200,196.317 202.840,196.000 202.400 C 195.683 201.960,195.193 201.600,194.912 201.600 C 194.630 201.600,194.400 201.370,194.400 201.088 C 194.400 200.807,194.040 200.317,193.600 200.000 C 193.160 199.683,192.800 199.013,192.800 198.512 C 192.800 197.968,192.558 197.600,192.200 197.600 C 191.870 197.600,191.600 197.407,191.600 197.171 C 191.600 196.936,191.343 196.486,191.029 196.171 C 190.714 195.857,190.264 195.600,190.029 195.600 C 189.793 195.600,189.600 195.407,189.600 195.171 C 189.600 194.936,189.343 194.486,189.029 194.171 C 188.714 193.857,188.264 193.600,188.029 193.600 C 187.793 193.600,187.600 193.407,187.600 193.171 C 187.600 192.936,187.343 192.486,187.029 192.171 C 186.714 191.857,186.264 191.600,186.029 191.600 C 185.793 191.600,185.600 191.407,185.600 191.171 C 185.600 190.705,184.615 189.600,184.200 189.600 C 183.785 189.600,182.800 188.495,182.800 188.029 C 182.800 187.793,182.607 187.600,182.371 187.600 C 181.850 187.600,180.800 186.595,180.800 186.096 C 180.800 185.898,180.350 185.494,179.800 185.200 C 179.172 184.864,178.800 184.318,178.800 183.732 C 178.800 183.220,178.620 182.800,178.400 182.800 C 178.180 182.800,178.000 182.530,178.000 182.200 C 178.000 181.870,177.807 181.600,177.571 181.600 C 177.336 181.600,176.886 181.343,176.571 181.029 C 176.257 180.714,176.000 180.264,176.000 180.029 C 176.000 179.793,175.807 179.600,175.571 179.600 C 175.336 179.600,174.886 179.343,174.571 179.029 C 174.257 178.714,174.000 178.264,174.000 178.029 C 174.000 177.793,173.770 177.600,173.488 177.600 C 173.207 177.600,172.717 177.240,172.400 176.800 C 172.083 176.360,171.593 176.000,171.312 176.000 C 171.030 176.000,170.800 175.807,170.800 175.571 C 170.800 175.018,169.782 174.000,169.229 174.000 C 168.993 174.000,168.800 173.807,168.800 173.571 C 168.800 173.018,167.782 172.000,167.229 172.000 C 166.993 172.000,166.800 171.770,166.800 171.488 C 166.800 171.207,166.440 170.717,166.000 170.400 C 165.560 170.083,165.200 169.413,165.200 168.912 C 165.200 168.368,164.958 168.000,164.600 168.000 C 164.270 168.000,164.000 167.807,164.000 167.571 C 164.000 167.018,162.982 166.000,162.429 166.000 C 162.193 166.000,162.000 165.807,162.000 165.571 C 162.000 165.105,161.015 164.000,160.600 164.000 C 160.185 164.000,159.200 162.895,159.200 162.429 C 159.200 162.193,159.007 162.000,158.771 162.000 C 158.218 162.000,157.200 160.982,157.200 160.429 C 157.200 160.193,157.007 160.000,156.771 160.000 C 156.218 160.000,155.200 158.982,155.200 158.429 C 155.200 158.193,155.007 158.000,154.771 158.000 C 154.218 158.000,153.200 156.982,153.200 156.429 C 153.200 156.193,153.020 156.000,152.800 156.000 C 152.580 156.000,152.400 155.712,152.400 155.360 C 152.400 154.686,146.244 148.400,145.584 148.400 C 145.373 148.400,145.200 148.207,145.200 147.971 C 145.200 147.736,144.943 147.286,144.629 146.971 C 144.314 146.657,143.864 146.400,143.629 146.400 C 143.393 146.400,143.200 146.207,143.200 145.971 C 143.200 145.736,142.943 145.286,142.629 144.971 C 142.314 144.657,141.864 144.400,141.629 144.400 C 141.393 144.400,141.200 144.205,141.200 143.967 C 141.200 143.728,140.570 142.921,139.800 142.174 C 139.030 141.426,138.400 140.528,138.400 140.178 C 138.400 139.454,137.469 138.400,136.829 138.400 C 136.593 138.400,136.400 138.207,136.400 137.971 C 136.400 137.505,135.415 136.400,135.000 136.400 C 134.585 136.400,133.600 135.295,133.600 134.829 C 133.600 134.593,133.407 134.400,133.171 134.400 C 132.618 134.400,131.600 133.382,131.600 132.829 C 131.600 132.593,131.407 132.400,131.171 132.400 C 130.618 132.400,129.600 131.382,129.600 130.829 C 129.600 130.593,129.407 130.400,129.171 130.400 C 128.936 130.400,128.486 130.143,128.171 129.829 C 127.857 129.514,127.600 129.064,127.600 128.829 C 127.600 128.593,127.407 128.400,127.171 128.400 C 126.936 128.400,126.486 128.143,126.171 127.829 C 125.857 127.514,125.600 127.064,125.600 126.829 C 125.600 126.593,125.420 126.400,125.200 126.400 C 124.980 126.400,124.800 126.104,124.800 125.743 C 124.800 125.039,122.673 122.800,122.004 122.800 C 121.782 122.800,121.600 122.607,121.600 122.371 C 121.600 121.818,120.582 120.800,120.029 120.800 C 119.793 120.800,119.600 120.607,119.600 120.371 C 119.600 119.818,118.582 118.800,118.029 118.800 C 117.793 118.800,117.600 118.607,117.600 118.371 C 117.600 118.136,117.343 117.686,117.029 117.371 C 116.714 117.057,116.264 116.800,116.029 116.800 C 115.793 116.800,115.600 116.607,115.600 116.371 C 115.600 116.136,115.343 115.686,115.029 115.371 C 114.714 115.057,114.264 114.800,114.029 114.800 C 113.793 114.800,113.600 114.605,113.600 114.367 C 113.600 114.128,112.970 113.321,112.200 112.574 C 111.430 111.826,110.800 110.941,110.800 110.607 C 110.800 110.273,110.620 110.000,110.400 110.000 C 110.180 110.000,110.000 109.730,110.000 109.400 C 110.000 109.070,109.807 108.800,109.571 108.800 C 109.018 108.800,108.000 107.782,108.000 107.229 C 108.000 106.993,107.807 106.800,107.571 106.800 C 107.018 106.800,106.000 105.782,106.000 105.229 C 106.000 104.993,105.807 104.800,105.571 104.800 C 105.018 104.800,104.000 103.782,104.000 103.229 C 104.000 102.993,103.807 102.800,103.571 102.800 C 103.018 102.800,102.000 101.782,102.000 101.229 C 102.000 100.993,101.807 100.800,101.571 100.800 C 101.105 100.800,100.000 99.815,100.000 99.400 C 100.000 99.259,99.743 98.886,99.429 98.571 C 99.114 98.257,98.741 98.000,98.600 98.000 C 98.043 98.000,97.200 96.813,97.200 96.029 C 97.200 95.559,96.940 95.200,96.600 95.200 C 96.167 95.200,96.000 94.756,96.000 93.600 L 96.000 92.000 188.600 92.000 L 281.200 92.000 281.200 95.000 M98.000 109.400 C 98.000 109.730,98.193 110.000,98.429 110.000 C 99.076 110.000,100.000 111.058,100.000 111.800 C 100.000 112.542,100.924 113.600,101.571 113.600 C 101.807 113.600,102.000 113.793,102.000 114.029 C 102.000 114.264,102.257 114.714,102.571 115.029 C 102.886 115.343,103.336 115.600,103.571 115.600 C 103.807 115.600,104.000 115.793,104.000 116.029 C 104.000 116.264,104.257 116.714,104.571 117.029 C 104.886 117.343,105.336 117.600,105.571 117.600 C 105.807 117.600,106.000 117.793,106.000 118.029 C 106.000 118.582,107.018 119.600,107.571 119.600 C 107.807 119.600,108.000 119.793,108.000 120.029 C 108.000 120.264,108.257 120.714,108.571 121.029 C 108.886 121.343,109.336 121.600,109.571 121.600 C 109.807 121.600,110.000 121.793,110.000 122.029 C 110.000 122.495,110.985 123.600,111.400 123.600 C 111.815 123.600,112.800 124.705,112.800 125.171 C 112.800 125.407,112.980 125.600,113.200 125.600 C 113.420 125.600,113.600 125.935,113.600 126.344 C 113.600 126.753,114.050 127.426,114.600 127.839 C 115.150 128.252,115.600 128.817,115.600 129.095 C 115.600 129.373,115.793 129.600,116.029 129.600 C 116.264 129.600,116.714 129.857,117.029 130.171 C 117.343 130.486,117.600 130.936,117.600 131.171 C 117.600 131.407,117.793 131.600,118.029 131.600 C 118.264 131.600,118.714 131.857,119.029 132.171 C 119.343 132.486,119.600 132.936,119.600 133.171 C 119.600 133.407,119.793 133.600,120.029 133.600 C 120.264 133.600,120.714 133.857,121.029 134.171 C 121.343 134.486,121.600 134.936,121.600 135.171 C 121.600 135.407,121.830 135.600,122.112 135.600 C 122.393 135.600,122.883 135.960,123.200 136.400 C 123.517 136.840,124.007 137.200,124.288 137.200 C 124.570 137.200,124.800 137.393,124.800 137.629 C 124.800 137.864,125.057 138.314,125.371 138.629 C 125.686 138.943,126.136 139.200,126.371 139.200 C 126.607 139.200,126.800 139.470,126.800 139.800 C 126.800 140.130,126.980 140.400,127.200 140.400 C 127.420 140.400,127.600 140.773,127.600 141.229 C 127.600 142.114,128.466 143.200,129.171 143.200 C 129.407 143.200,129.600 143.393,129.600 143.629 C 129.600 143.864,129.857 144.314,130.171 144.629 C 130.486 144.943,130.936 145.200,131.171 145.200 C 131.407 145.200,131.600 145.393,131.600 145.629 C 131.600 145.864,131.857 146.314,132.171 146.629 C 132.486 146.943,132.936 147.200,133.171 147.200 C 133.407 147.200,133.600 147.393,133.600 147.629 C 133.600 148.095,134.585 149.200,135.000 149.200 C 135.415 149.200,136.400 150.305,136.400 150.771 C 136.400 151.007,136.593 151.200,136.829 151.200 C 137.064 151.200,137.514 151.457,137.829 151.771 C 138.143 152.086,138.400 152.536,138.400 152.771 C 138.400 153.007,138.593 153.200,138.829 153.200 C 139.485 153.200,140.400 154.262,140.400 155.024 C 140.400 155.399,141.030 156.300,141.800 157.026 C 142.570 157.752,143.200 158.538,143.200 158.773 C 143.200 159.008,143.393 159.200,143.629 159.200 C 144.182 159.200,145.200 160.218,145.200 160.771 C 145.200 161.007,145.430 161.200,145.712 161.200 C 145.993 161.200,146.483 161.560,146.800 162.000 C 147.117 162.440,147.607 162.800,147.888 162.800 C 148.170 162.800,148.400 162.993,148.400 163.229 C 148.400 163.464,148.657 163.914,148.971 164.229 C 149.286 164.543,149.736 164.800,149.971 164.800 C 150.207 164.800,150.400 164.993,150.400 165.229 C 150.400 165.464,150.657 165.914,150.971 166.229 C 151.286 166.543,151.736 166.800,151.971 166.800 C 152.207 166.800,152.400 167.030,152.400 167.312 C 152.400 167.593,152.760 168.083,153.200 168.400 C 153.640 168.717,154.000 169.387,154.000 169.888 C 154.000 170.432,154.242 170.800,154.600 170.800 C 154.930 170.800,155.200 170.993,155.200 171.229 C 155.200 171.464,155.457 171.914,155.771 172.229 C 156.086 172.543,156.536 172.800,156.771 172.800 C 157.007 172.800,157.200 172.993,157.200 173.229 C 157.200 173.750,158.205 174.800,158.704 174.800 C 158.902 174.800,159.306 175.250,159.600 175.800 C 159.894 176.350,160.298 176.800,160.496 176.800 C 160.995 176.800,162.000 177.850,162.000 178.371 C 162.000 178.607,162.193 178.800,162.429 178.800 C 162.664 178.800,163.114 179.057,163.429 179.371 C 163.743 179.686,164.000 180.136,164.000 180.371 C 164.000 180.607,164.193 180.800,164.429 180.800 C 164.950 180.800,166.000 181.805,166.000 182.304 C 166.000 182.502,166.450 182.906,167.000 183.200 C 167.550 183.494,168.000 184.078,168.000 184.496 C 168.000 185.280,172.842 190.400,173.584 190.400 C 173.813 190.400,174.000 190.593,174.000 190.829 C 174.000 191.382,175.018 192.400,175.571 192.400 C 175.807 192.400,176.000 192.593,176.000 192.829 C 176.000 193.064,176.257 193.514,176.571 193.829 C 176.886 194.143,177.336 194.400,177.571 194.400 C 177.807 194.400,178.000 194.593,178.000 194.829 C 178.000 195.064,178.257 195.514,178.571 195.829 C 178.886 196.143,179.336 196.400,179.571 196.400 C 179.807 196.400,180.000 196.630,180.000 196.912 C 180.000 197.193,180.360 197.683,180.800 198.000 C 181.240 198.317,181.600 198.987,181.600 199.488 C 181.600 200.032,181.842 200.400,182.200 200.400 C 182.530 200.400,182.800 200.593,182.800 200.829 C 182.800 201.295,183.785 202.400,184.200 202.400 C 184.615 202.400,185.600 203.505,185.600 203.971 C 185.600 204.207,185.793 204.400,186.029 204.400 C 186.582 204.400,187.600 205.418,187.600 205.971 C 187.600 206.207,187.793 206.400,188.029 206.400 C 188.264 206.400,188.714 206.657,189.029 206.971 C 189.343 207.286,189.600 207.736,189.600 207.971 C 189.600 208.207,189.793 208.400,190.029 208.400 C 190.582 208.400,191.600 209.418,191.600 209.971 C 191.600 210.207,191.793 210.400,192.029 210.400 C 192.495 210.400,193.600 211.385,193.600 211.800 C 193.600 212.215,194.705 213.200,195.171 213.200 C 195.407 213.200,195.600 213.470,195.600 213.800 C 195.600 214.130,195.412 214.400,195.182 214.400 C 194.639 214.400,192.800 216.239,192.800 216.782 C 192.800 217.012,192.607 217.200,192.371 217.200 C 192.136 217.200,191.686 217.457,191.371 217.771 C 191.057 218.086,190.800 218.536,190.800 218.771 C 190.800 219.007,190.607 219.200,190.371 219.200 C 189.818 219.200,188.800 220.218,188.800 220.771 C 188.800 221.007,188.607 221.200,188.371 221.200 C 187.818 221.200,186.800 222.218,186.800 222.771 C 186.800 223.007,186.607 223.200,186.371 223.200 C 185.818 223.200,184.800 224.218,184.800 224.771 C 184.800 225.007,184.607 225.200,184.371 225.200 C 183.818 225.200,182.800 226.218,182.800 226.771 C 182.800 227.007,182.530 227.200,182.200 227.200 C 181.867 227.200,181.600 227.556,181.600 228.000 C 181.600 228.440,181.420 228.800,181.200 228.800 C 180.980 228.800,180.800 228.993,180.800 229.229 C 180.800 229.782,179.782 230.800,179.229 230.800 C 178.993 230.800,178.800 230.993,178.800 231.229 C 178.800 231.782,177.782 232.800,177.229 232.800 C 176.993 232.800,176.800 232.993,176.800 233.229 C 176.800 233.782,175.782 234.800,175.229 234.800 C 174.993 234.800,174.800 234.993,174.800 235.229 C 174.800 235.782,173.782 236.800,173.229 236.800 C 172.993 236.800,172.800 236.993,172.800 237.229 C 172.800 237.782,171.782 238.800,171.229 238.800 C 170.993 238.800,170.800 238.993,170.800 239.229 C 170.800 239.710,169.810 240.800,169.373 240.800 C 168.947 240.800,168.027 242.121,168.013 242.753 C 168.006 243.057,167.370 243.900,166.600 244.626 C 165.830 245.352,165.200 246.138,165.200 246.373 C 165.200 246.608,165.007 246.800,164.771 246.800 C 164.218 246.800,163.200 247.818,163.200 248.371 C 163.200 248.607,163.007 248.800,162.771 248.800 C 162.218 248.800,161.200 249.818,161.200 250.371 C 161.200 250.607,161.007 250.800,160.771 250.800 C 160.218 250.800,159.200 251.818,159.200 252.371 C 159.200 252.607,159.028 252.800,158.818 252.800 C 158.167 252.800,154.000 257.094,154.000 257.765 C 154.000 258.114,153.820 258.400,153.600 258.400 C 153.380 258.400,153.200 258.593,153.200 258.829 C 153.200 259.382,152.182 260.400,151.629 260.400 C 151.393 260.400,151.200 260.593,151.200 260.829 C 151.200 261.382,150.182 262.400,149.629 262.400 C 149.393 262.400,149.200 262.593,149.200 262.829 C 149.200 263.382,148.182 264.400,147.629 264.400 C 147.393 264.400,147.200 264.593,147.200 264.829 C 147.200 265.382,146.182 266.400,145.629 266.400 C 145.393 266.400,145.200 266.593,145.200 266.829 C 145.200 267.295,144.215 268.400,143.800 268.400 C 143.385 268.400,142.400 269.505,142.400 269.971 C 142.400 270.207,142.207 270.400,141.971 270.400 C 141.266 270.400,140.400 271.486,140.400 272.371 C 140.400 272.827,140.220 273.200,140.000 273.200 C 139.780 273.200,139.600 273.470,139.600 273.800 C 139.600 274.130,139.407 274.400,139.171 274.400 C 138.618 274.400,137.600 275.418,137.600 275.971 C 137.600 276.207,137.407 276.400,137.171 276.400 C 136.618 276.400,135.600 277.418,135.600 277.971 C 135.600 278.207,135.407 278.400,135.171 278.400 C 134.618 278.400,133.600 279.418,133.600 279.971 C 133.600 280.207,133.413 280.400,133.184 280.400 C 132.500 280.400,127.600 285.489,127.600 286.200 C 127.600 286.942,126.676 288.000,126.029 288.000 C 125.793 288.000,125.600 288.193,125.600 288.429 C 125.600 288.982,124.582 290.000,124.029 290.000 C 123.793 290.000,123.600 290.193,123.600 290.429 C 123.600 290.982,122.582 292.000,122.029 292.000 C 121.793 292.000,121.600 292.193,121.600 292.429 C 121.600 292.895,120.615 294.000,120.200 294.000 C 119.785 294.000,118.800 295.105,118.800 295.571 C 118.800 295.807,118.607 296.000,118.371 296.000 C 117.818 296.000,116.800 297.018,116.800 297.571 C 116.800 297.807,116.607 298.000,116.371 298.000 C 115.818 298.000,114.800 299.018,114.800 299.571 C 114.800 299.807,114.530 300.000,114.200 300.000 C 113.842 300.000,113.600 300.368,113.600 300.912 C 113.600 301.413,113.240 302.083,112.800 302.400 C 112.360 302.717,112.000 303.207,112.000 303.488 C 112.000 303.770,111.730 304.000,111.400 304.000 C 110.911 304.000,110.800 303.333,110.800 300.400 C 110.800 298.267,110.637 296.800,110.400 296.800 C 110.148 296.800,110.000 294.129,110.000 289.587 C 110.000 283.545,109.903 282.338,109.400 282.145 C 108.898 281.952,108.800 280.750,108.800 274.757 C 108.800 270.252,108.652 267.600,108.400 267.600 C 108.151 267.600,108.000 265.333,108.000 261.600 C 108.000 256.533,107.907 255.600,107.400 255.600 C 106.888 255.600,106.800 254.511,106.800 248.200 C 106.800 243.533,106.652 240.800,106.400 240.800 C 106.148 240.800,106.000 238.067,106.000 233.400 C 106.000 227.089,105.912 226.000,105.400 226.000 C 104.892 226.000,104.800 225.022,104.800 219.600 C 104.800 215.600,104.650 213.200,104.400 213.200 C 104.149 213.200,104.000 210.667,104.000 206.400 C 104.000 200.622,103.910 199.600,103.400 199.600 C 102.888 199.600,102.800 198.511,102.800 192.200 C 102.800 187.533,102.652 184.800,102.400 184.800 C 102.149 184.800,102.000 182.200,102.000 177.800 C 102.000 171.844,101.910 170.800,101.400 170.800 C 100.892 170.800,100.800 169.822,100.800 164.400 C 100.800 160.400,100.650 158.000,100.400 158.000 C 100.148 158.000,100.000 155.267,100.000 150.600 C 100.000 145.933,99.852 143.200,99.600 143.200 C 99.348 143.200,99.200 140.529,99.200 135.987 C 99.200 129.945,99.103 128.738,98.600 128.545 C 98.101 128.353,98.000 127.239,98.000 121.957 C 98.000 117.986,97.850 115.600,97.600 115.600 C 97.365 115.600,97.200 114.200,97.200 112.200 C 97.200 110.200,97.365 108.800,97.600 108.800 C 97.820 108.800,98.000 109.070,98.000 109.400 M291.200 110.607 C 291.200 111.130,288.633 114.000,288.166 114.000 C 288.075 114.000,288.000 113.100,288.000 112.000 L 288.000 110.000 289.600 110.000 C 290.764 110.000,291.200 110.165,291.200 110.607 M302.800 112.200 C 302.800 112.573,303.178 112.800,303.800 112.800 C 304.600 112.800,304.800 113.000,304.800 113.800 C 304.800 114.350,304.993 114.800,305.229 114.800 C 306.083 114.800,306.800 115.974,306.800 117.371 C 306.800 118.375,306.979 118.800,307.400 118.800 C 307.853 118.800,308.000 119.289,308.000 120.800 C 308.000 122.311,307.853 122.800,307.400 122.800 C 306.997 122.800,306.800 123.203,306.800 124.029 C 306.800 125.254,306.041 126.400,305.229 126.400 C 304.993 126.400,304.800 126.850,304.800 127.400 C 304.800 128.200,304.600 128.400,303.800 128.400 C 303.250 128.400,302.800 128.593,302.800 128.829 C 302.800 129.534,301.714 130.400,300.829 130.400 C 300.359 130.400,300.000 130.660,300.000 131.000 C 300.000 131.510,298.978 131.600,293.200 131.600 L 286.400 131.600 286.400 130.600 C 286.400 130.050,286.580 129.600,286.800 129.600 C 287.020 129.600,287.200 129.150,287.200 128.600 C 287.200 128.050,287.380 127.600,287.600 127.600 C 287.820 127.600,288.000 127.150,288.000 126.600 C 288.000 125.978,288.227 125.600,288.600 125.600 C 288.930 125.600,289.200 125.407,289.200 125.171 C 289.200 124.705,290.185 123.600,290.600 123.600 C 291.015 123.600,292.000 122.495,292.000 122.029 C 292.000 121.793,292.193 121.600,292.429 121.600 C 292.982 121.600,294.000 120.582,294.000 120.029 C 294.000 119.793,294.193 119.600,294.429 119.600 C 294.982 119.600,296.000 118.582,296.000 118.029 C 296.000 117.793,296.193 117.600,296.429 117.600 C 296.664 117.600,297.114 117.343,297.429 117.029 C 297.743 116.714,298.000 116.264,298.000 116.029 C 298.000 115.793,298.193 115.600,298.429 115.600 C 298.895 115.600,300.000 114.615,300.000 114.200 C 300.000 113.785,301.105 112.800,301.571 112.800 C 301.807 112.800,302.000 112.530,302.000 112.200 C 302.000 111.870,302.180 111.600,302.400 111.600 C 302.620 111.600,302.800 111.870,302.800 112.200 M155.200 127.000 C 155.200 127.330,155.007 127.600,154.771 127.600 C 153.678 127.600,153.200 128.807,153.200 131.571 C 153.200 133.190,153.371 134.400,153.600 134.400 C 153.820 134.400,154.000 134.850,154.000 135.400 C 154.000 136.200,154.200 136.400,155.000 136.400 C 155.550 136.400,156.000 136.580,156.000 136.800 C 156.000 137.063,166.800 137.200,187.600 137.200 C 208.400 137.200,219.200 137.063,219.200 136.800 C 219.200 136.580,219.573 136.400,220.029 136.400 C 221.090 136.400,222.000 135.490,222.000 134.429 C 222.000 133.959,222.260 133.600,222.600 133.600 C 223.053 133.600,223.200 133.111,223.200 131.600 C 223.200 130.089,223.053 129.600,222.600 129.600 C 222.227 129.600,222.000 129.222,222.000 128.600 C 222.000 127.800,221.800 127.600,221.000 127.600 C 220.378 127.600,220.000 127.373,220.000 127.000 C 220.000 126.472,216.133 126.400,187.600 126.400 C 159.067 126.400,155.200 126.472,155.200 127.000 M278.400 137.800 C 278.400 138.130,278.130 138.400,277.800 138.400 C 277.292 138.400,277.200 139.378,277.200 144.800 C 277.200 148.800,277.050 151.200,276.800 151.200 C 276.550 151.200,276.400 153.600,276.400 157.600 C 276.400 163.022,276.308 164.000,275.800 164.000 C 275.288 164.000,275.200 165.089,275.200 171.400 C 275.200 176.067,275.052 178.800,274.800 178.800 C 274.549 178.800,274.400 181.333,274.400 185.600 C 274.400 189.867,274.251 192.400,274.000 192.400 C 273.751 192.400,273.600 194.667,273.600 198.400 C 273.600 203.467,273.507 204.400,273.000 204.400 C 272.490 204.400,272.400 205.422,272.400 211.200 C 272.400 215.467,272.251 218.000,272.000 218.000 C 271.749 218.000,271.600 220.600,271.600 225.000 C 271.600 230.956,271.510 232.000,271.000 232.000 C 270.490 232.000,270.400 233.022,270.400 238.800 C 270.400 243.067,270.251 245.600,270.000 245.600 C 269.750 245.600,269.600 248.000,269.600 252.000 C 269.600 257.422,269.508 258.400,269.000 258.400 C 268.490 258.400,268.400 259.444,268.400 265.400 C 268.400 269.800,268.251 272.400,268.000 272.400 C 267.769 272.400,267.600 273.667,267.600 275.400 C 267.600 277.800,267.480 278.400,267.000 278.400 C 266.670 278.400,266.400 278.207,266.400 277.971 C 266.400 277.418,265.382 276.400,264.829 276.400 C 264.593 276.400,264.400 276.207,264.400 275.971 C 264.400 275.418,263.382 274.400,262.829 274.400 C 262.593 274.400,262.400 274.130,262.400 273.800 C 262.400 273.470,262.220 273.200,262.000 273.200 C 261.780 273.200,261.600 272.750,261.600 272.200 C 261.600 271.650,261.407 271.200,261.171 271.200 C 260.705 271.200,259.600 270.215,259.600 269.800 C 259.600 269.466,258.534 268.400,258.200 268.400 C 257.785 268.400,256.800 267.295,256.800 266.829 C 256.800 266.593,256.607 266.400,256.371 266.400 C 255.818 266.400,254.800 265.382,254.800 264.829 C 254.800 264.593,254.607 264.400,254.371 264.400 C 253.818 264.400,252.800 263.382,252.800 262.829 C 252.800 262.593,252.607 262.400,252.371 262.400 C 251.818 262.400,250.800 261.382,250.800 260.829 C 250.800 260.593,250.607 260.400,250.371 260.400 C 249.818 260.400,248.800 259.382,248.800 258.829 C 248.800 258.593,248.530 258.400,248.200 258.400 C 247.865 258.400,247.600 258.044,247.600 257.595 C 247.600 256.788,243.936 252.800,243.195 252.800 C 242.978 252.800,242.800 252.607,242.800 252.371 C 242.800 251.818,241.782 250.800,241.229 250.800 C 240.993 250.800,240.800 250.607,240.800 250.371 C 240.800 249.818,239.782 248.800,239.229 248.800 C 238.993 248.800,238.800 248.607,238.800 248.371 C 238.800 247.818,237.782 246.800,237.229 246.800 C 236.993 246.800,236.800 246.607,236.800 246.371 C 236.800 245.818,235.782 244.800,235.229 244.800 C 234.993 244.800,234.800 244.530,234.800 244.200 C 234.800 243.870,234.620 243.600,234.400 243.600 C 234.180 243.600,234.000 243.263,234.000 242.851 C 234.000 242.439,233.370 241.564,232.600 240.906 C 231.830 240.248,231.200 239.505,231.200 239.255 C 231.200 239.005,231.007 238.800,230.771 238.800 C 230.218 238.800,229.200 237.782,229.200 237.229 C 229.200 236.993,229.007 236.800,228.771 236.800 C 228.218 236.800,227.200 235.782,227.200 235.229 C 227.200 234.993,227.007 234.800,226.771 234.800 C 226.218 234.800,225.200 233.782,225.200 233.229 C 225.200 232.993,225.007 232.800,224.771 232.800 C 224.218 232.800,223.200 231.782,223.200 231.229 C 223.200 230.993,223.007 230.800,222.771 230.800 C 222.218 230.800,221.200 229.782,221.200 229.229 C 221.200 228.993,220.930 228.800,220.600 228.800 C 220.267 228.800,220.000 228.444,220.000 228.000 C 220.000 227.560,219.820 227.200,219.600 227.200 C 219.380 227.200,219.200 227.007,219.200 226.771 C 219.200 226.218,218.182 225.200,217.629 225.200 C 217.393 225.200,217.200 225.007,217.200 224.771 C 217.200 224.218,216.182 223.200,215.629 223.200 C 215.393 223.200,215.200 223.007,215.200 222.771 C 215.200 222.218,214.182 221.200,213.629 221.200 C 213.393 221.200,213.200 221.007,213.200 220.771 C 213.200 220.218,212.182 219.200,211.629 219.200 C 211.393 219.200,211.200 219.007,211.200 218.771 C 211.200 218.218,210.182 217.200,209.629 217.200 C 209.393 217.200,209.200 217.007,209.200 216.771 C 209.200 216.305,208.215 215.200,207.800 215.200 C 207.466 215.200,206.400 214.134,206.400 213.800 C 206.400 213.385,207.505 212.400,207.971 212.400 C 208.207 212.400,208.400 212.207,208.400 211.971 C 208.400 211.736,208.657 211.286,208.971 210.971 C 209.286 210.657,209.736 210.400,209.971 210.400 C 210.207 210.400,210.400 210.207,210.400 209.971 C 210.400 209.736,210.657 209.286,210.971 208.971 C 211.286 208.657,211.736 208.400,211.971 208.400 C 212.207 208.400,212.400 208.207,212.400 207.971 C 212.400 207.736,212.657 207.286,212.971 206.971 C 213.286 206.657,213.736 206.400,213.971 206.400 C 214.207 206.400,214.400 206.207,214.400 205.971 C 214.400 205.418,215.418 204.400,215.971 204.400 C 216.207 204.400,216.400 204.207,216.400 203.971 C 216.400 203.505,217.385 202.400,217.800 202.400 C 218.215 202.400,219.200 201.295,219.200 200.829 C 219.200 200.593,219.380 200.400,219.600 200.400 C 219.820 200.400,220.000 199.950,220.000 199.400 C 220.000 198.850,220.193 198.400,220.429 198.400 C 220.982 198.400,222.000 197.382,222.000 196.829 C 222.000 196.593,222.193 196.400,222.429 196.400 C 222.982 196.400,224.000 195.382,224.000 194.829 C 224.000 194.593,224.193 194.400,224.429 194.400 C 224.982 194.400,226.000 193.382,226.000 192.829 C 226.000 192.593,226.193 192.400,226.429 192.400 C 226.982 192.400,228.000 191.382,228.000 190.829 C 228.000 190.593,228.192 190.400,228.426 190.400 C 229.088 190.400,234.000 185.253,234.000 184.560 C 234.000 183.851,234.939 182.800,235.571 182.800 C 235.807 182.800,236.000 182.607,236.000 182.371 C 236.000 182.136,236.257 181.686,236.571 181.371 C 236.886 181.057,237.336 180.800,237.571 180.800 C 237.807 180.800,238.000 180.607,238.000 180.371 C 238.000 179.818,239.018 178.800,239.571 178.800 C 239.807 178.800,240.000 178.607,240.000 178.371 C 240.000 177.850,241.005 176.800,241.504 176.800 C 241.702 176.800,242.106 176.350,242.400 175.800 C 242.694 175.250,243.098 174.800,243.296 174.800 C 243.795 174.800,244.800 173.750,244.800 173.229 C 244.800 172.993,244.993 172.800,245.229 172.800 C 245.782 172.800,246.800 171.782,246.800 171.229 C 246.800 170.993,246.980 170.800,247.200 170.800 C 247.420 170.800,247.600 170.350,247.600 169.800 C 247.600 169.250,247.793 168.800,248.029 168.800 C 248.582 168.800,249.600 167.782,249.600 167.229 C 249.600 166.993,249.793 166.800,250.029 166.800 C 250.582 166.800,251.600 165.782,251.600 165.229 C 251.600 164.993,251.793 164.800,252.029 164.800 C 252.582 164.800,253.600 163.782,253.600 163.229 C 253.600 162.993,253.789 162.800,254.019 162.800 C 254.566 162.800,260.400 156.966,260.400 156.419 C 260.400 156.189,260.670 156.000,261.000 156.000 C 261.340 156.000,261.600 155.641,261.600 155.171 C 261.600 154.286,262.466 153.200,263.171 153.200 C 263.407 153.200,263.600 153.007,263.600 152.771 C 263.600 152.218,264.618 151.200,265.171 151.200 C 265.407 151.200,265.600 151.007,265.600 150.771 C 265.600 150.305,266.585 149.200,267.000 149.200 C 267.415 149.200,268.400 148.095,268.400 147.629 C 268.400 147.393,268.593 147.200,268.829 147.200 C 269.382 147.200,270.400 146.182,270.400 145.629 C 270.400 145.393,270.593 145.200,270.829 145.200 C 271.295 145.200,272.400 144.215,272.400 143.800 C 272.400 143.385,273.505 142.400,273.971 142.400 C 274.207 142.400,274.400 141.950,274.400 141.400 C 274.400 140.850,274.580 140.400,274.800 140.400 C 275.020 140.400,275.200 140.130,275.200 139.800 C 275.200 139.470,275.393 139.200,275.629 139.200 C 276.182 139.200,277.200 138.182,277.200 137.629 C 277.200 137.393,277.470 137.200,277.800 137.200 C 278.130 137.200,278.400 137.470,278.400 137.800 M201.600 220.429 C 201.600 220.982,202.618 222.000,203.171 222.000 C 203.407 222.000,203.600 222.193,203.600 222.429 C 203.600 222.982,204.618 224.000,205.171 224.000 C 205.407 224.000,205.600 224.196,205.600 224.436 C 205.600 224.675,206.410 225.659,207.400 226.621 C 208.390 227.583,209.200 228.737,209.200 229.185 C 209.200 229.633,209.393 230.000,209.629 230.000 C 209.864 230.000,210.314 230.257,210.629 230.571 C 210.943 230.886,211.200 231.336,211.200 231.571 C 211.200 231.807,211.393 232.000,211.629 232.000 C 211.864 232.000,212.314 232.257,212.629 232.571 C 212.943 232.886,213.200 233.336,213.200 233.571 C 213.200 233.807,213.393 234.000,213.629 234.000 C 213.864 234.000,214.314 234.257,214.629 234.571 C 214.943 234.886,215.200 235.336,215.200 235.571 C 215.200 235.807,215.393 236.000,215.629 236.000 C 215.864 236.000,216.314 236.257,216.629 236.571 C 216.943 236.886,217.200 237.336,217.200 237.571 C 217.200 237.807,217.393 238.000,217.629 238.000 C 217.864 238.000,218.314 238.257,218.629 238.571 C 218.943 238.886,219.200 239.336,219.200 239.571 C 219.200 239.807,219.335 240.000,219.500 240.000 C 220.011 240.001,222.000 241.868,222.000 242.347 C 222.000 242.596,222.270 242.800,222.600 242.800 C 222.940 242.800,223.200 243.159,223.200 243.629 C 223.200 244.514,224.066 245.600,224.771 245.600 C 225.007 245.600,225.200 245.793,225.200 246.029 C 225.200 246.264,225.457 246.714,225.771 247.029 C 226.086 247.343,226.536 247.600,226.771 247.600 C 227.007 247.600,227.200 247.793,227.200 248.029 C 227.200 248.264,227.457 248.714,227.771 249.029 C 228.086 249.343,228.536 249.600,228.771 249.600 C 229.007 249.600,229.200 249.793,229.200 250.029 C 229.200 250.264,229.457 250.714,229.771 251.029 C 230.086 251.343,230.536 251.600,230.771 251.600 C 231.007 251.600,231.200 251.793,231.200 252.029 C 231.200 252.495,232.185 253.600,232.600 253.600 C 232.741 253.600,233.114 253.857,233.429 254.171 C 233.743 254.486,234.000 254.859,234.000 255.000 C 234.000 255.415,235.105 256.400,235.571 256.400 C 235.807 256.400,236.000 256.670,236.000 257.000 C 236.000 257.330,236.180 257.600,236.400 257.600 C 236.620 257.600,236.800 258.050,236.800 258.600 C 236.800 259.150,236.993 259.600,237.229 259.600 C 237.782 259.600,238.800 260.618,238.800 261.171 C 238.800 261.407,238.993 261.600,239.229 261.600 C 239.464 261.600,239.914 261.857,240.229 262.171 C 240.543 262.486,240.800 262.936,240.800 263.171 C 240.800 263.407,240.993 263.600,241.229 263.600 C 241.464 263.600,241.914 263.857,242.229 264.171 C 242.543 264.486,242.800 264.936,242.800 265.171 C 242.800 265.407,243.030 265.600,243.312 265.600 C 243.593 265.600,244.083 265.960,244.400 266.400 C 244.717 266.840,245.207 267.200,245.488 267.200 C 245.770 267.200,246.000 267.430,246.000 267.712 C 246.000 267.993,246.360 268.483,246.800 268.800 C 247.240 269.117,247.600 269.607,247.600 269.888 C 247.600 270.170,247.793 270.400,248.029 270.400 C 248.734 270.400,249.600 271.486,249.600 272.371 C 249.600 272.841,249.860 273.200,250.200 273.200 C 250.530 273.200,250.800 273.393,250.800 273.629 C 250.800 273.864,251.057 274.314,251.371 274.629 C 251.686 274.943,252.136 275.200,252.371 275.200 C 252.607 275.200,252.800 275.393,252.800 275.629 C 252.800 275.864,253.057 276.314,253.371 276.629 C 253.686 276.943,254.136 277.200,254.371 277.200 C 254.607 277.200,254.800 277.393,254.800 277.629 C 254.800 278.150,255.805 279.200,256.304 279.200 C 256.502 279.200,256.906 279.650,257.200 280.200 C 257.494 280.750,257.898 281.200,258.096 281.200 C 258.510 281.200,259.600 282.215,259.600 282.600 C 259.600 283.015,260.705 284.000,261.171 284.000 C 261.407 284.000,261.600 284.193,261.600 284.429 C 261.600 284.664,261.857 285.114,262.171 285.429 C 262.486 285.743,262.936 286.000,263.171 286.000 C 263.407 286.000,263.600 286.450,263.600 287.000 C 263.600 287.550,263.780 288.000,264.000 288.000 C 264.220 288.000,264.400 288.270,264.400 288.600 C 264.400 288.930,264.593 289.200,264.829 289.200 C 266.024 289.200,266.400 290.390,266.400 294.171 C 266.400 296.457,266.239 298.000,266.000 298.000 C 265.749 298.000,265.600 300.533,265.600 304.800 C 265.600 310.578,265.510 311.600,265.000 311.600 C 264.488 311.600,264.400 312.689,264.400 319.000 C 264.400 323.667,264.252 326.400,264.000 326.400 C 263.753 326.400,263.600 328.467,263.600 331.800 L 263.600 337.200 262.600 337.200 C 262.050 337.200,261.600 337.020,261.600 336.800 C 261.600 336.580,260.970 336.400,260.200 336.400 C 259.430 336.400,258.800 336.580,258.800 336.800 C 258.800 337.031,257.533 337.200,255.800 337.200 C 253.400 337.200,252.800 337.320,252.800 337.800 C 252.800 338.233,252.356 338.400,251.200 338.400 C 250.320 338.400,249.600 338.580,249.600 338.800 C 249.600 339.020,249.234 339.200,248.787 339.200 C 248.341 339.200,247.871 339.470,247.745 339.800 C 247.618 340.130,247.174 340.400,246.757 340.400 C 246.341 340.400,246.000 340.580,246.000 340.800 C 246.000 341.020,245.730 341.200,245.400 341.200 C 245.070 341.200,244.800 341.470,244.800 341.800 C 244.800 342.140,244.441 342.400,243.971 342.400 C 243.086 342.400,242.000 343.266,242.000 343.971 C 242.000 344.207,241.818 344.400,241.596 344.400 C 240.927 344.400,238.800 346.639,238.800 347.343 C 238.800 347.704,238.620 348.000,238.400 348.000 C 238.180 348.000,238.000 348.270,238.000 348.600 C 238.000 348.930,237.730 349.200,237.400 349.200 C 237.027 349.200,236.800 349.578,236.800 350.200 C 236.800 350.750,236.620 351.200,236.400 351.200 C 236.180 351.200,236.000 351.830,236.000 352.600 C 236.000 353.578,235.819 354.000,235.400 354.000 C 234.947 354.000,234.800 354.489,234.800 356.000 L 234.800 358.000 174.800 358.000 L 114.800 358.000 114.800 355.600 C 114.800 353.733,114.667 353.200,114.200 353.200 C 113.688 353.200,113.600 352.111,113.600 345.800 C 113.600 341.133,113.452 338.400,113.200 338.400 C 112.948 338.400,112.800 335.667,112.800 331.000 C 112.800 326.333,112.652 323.600,112.400 323.600 C 112.158 323.600,112.000 321.867,112.000 319.200 C 112.000 316.533,112.158 314.800,112.400 314.800 C 112.620 314.800,112.800 314.607,112.800 314.371 C 112.800 314.136,113.057 313.686,113.371 313.371 C 113.686 313.057,114.136 312.800,114.371 312.800 C 114.607 312.800,114.800 312.607,114.800 312.371 C 114.800 312.136,115.057 311.686,115.371 311.371 C 115.686 311.057,116.136 310.800,116.371 310.800 C 116.607 310.800,116.800 310.607,116.800 310.371 C 116.800 310.136,117.057 309.686,117.371 309.371 C 117.686 309.057,118.136 308.800,118.371 308.800 C 118.607 308.800,118.800 308.607,118.800 308.371 C 118.800 307.905,119.785 306.800,120.200 306.800 C 120.615 306.800,121.600 305.695,121.600 305.229 C 121.600 304.993,121.793 304.800,122.029 304.800 C 122.582 304.800,123.600 303.782,123.600 303.229 C 123.600 302.993,123.870 302.800,124.200 302.800 C 124.558 302.800,124.800 302.432,124.800 301.888 C 124.800 301.387,125.160 300.717,125.600 300.400 C 126.040 300.083,126.400 299.593,126.400 299.312 C 126.400 299.030,126.593 298.800,126.829 298.800 C 127.382 298.800,128.400 297.782,128.400 297.229 C 128.400 296.993,128.593 296.800,128.829 296.800 C 129.382 296.800,130.400 295.782,130.400 295.229 C 130.400 294.993,130.596 294.800,130.836 294.800 C 131.075 294.800,132.059 293.990,133.021 293.000 C 133.983 292.010,134.957 291.200,135.185 291.200 C 135.413 291.200,135.600 291.007,135.600 290.771 C 135.600 290.218,136.618 289.200,137.171 289.200 C 137.407 289.200,137.600 288.930,137.600 288.600 C 137.600 288.270,137.780 288.000,138.000 288.000 C 138.220 288.000,138.400 287.550,138.400 287.000 C 138.400 286.450,138.593 286.000,138.829 286.000 C 139.295 286.000,140.400 285.015,140.400 284.600 C 140.400 284.185,141.505 283.200,141.971 283.200 C 142.207 283.200,142.400 283.007,142.400 282.771 C 142.400 282.250,143.405 281.200,143.904 281.200 C 144.102 281.200,144.506 280.750,144.800 280.200 C 145.094 279.650,145.498 279.200,145.696 279.200 C 146.195 279.200,147.200 278.150,147.200 277.629 C 147.200 277.393,147.393 277.200,147.629 277.200 C 148.182 277.200,149.200 276.182,149.200 275.629 C 149.200 275.393,149.393 275.200,149.629 275.200 C 150.182 275.200,151.200 274.182,151.200 273.629 C 151.200 273.393,151.470 273.200,151.800 273.200 C 152.158 273.200,152.400 272.832,152.400 272.288 C 152.400 271.787,152.760 271.117,153.200 270.800 C 153.640 270.483,154.000 269.993,154.000 269.712 C 154.000 269.430,154.193 269.200,154.429 269.200 C 154.982 269.200,156.000 268.182,156.000 267.629 C 156.000 267.393,156.230 267.200,156.512 267.200 C 156.793 267.200,157.283 266.840,157.600 266.400 C 157.917 265.960,158.407 265.600,158.688 265.600 C 158.970 265.600,159.200 265.407,159.200 265.171 C 159.200 264.618,160.218 263.600,160.771 263.600 C 161.007 263.600,161.200 263.407,161.200 263.171 C 161.200 262.618,162.218 261.600,162.771 261.600 C 163.007 261.600,163.200 261.407,163.200 261.171 C 163.200 260.618,164.218 259.600,164.771 259.600 C 165.007 259.600,165.200 259.150,165.200 258.600 C 165.200 258.050,165.380 257.600,165.600 257.600 C 165.820 257.600,166.000 257.407,166.000 257.171 C 166.000 256.618,167.018 255.600,167.571 255.600 C 167.807 255.600,168.000 255.407,168.000 255.171 C 168.000 254.705,168.985 253.600,169.400 253.600 C 169.815 253.600,170.800 252.495,170.800 252.029 C 170.800 251.793,170.993 251.600,171.229 251.600 C 171.782 251.600,172.800 250.582,172.800 250.029 C 172.800 249.793,172.993 249.600,173.229 249.600 C 173.782 249.600,174.800 248.582,174.800 248.029 C 174.800 247.793,174.993 247.600,175.229 247.600 C 175.782 247.600,176.800 246.582,176.800 246.029 C 176.800 245.793,176.993 245.600,177.229 245.600 C 177.860 245.600,178.800 244.550,178.800 243.845 C 178.800 243.155,181.742 240.000,182.384 240.000 C 182.613 240.000,182.800 239.807,182.800 239.571 C 182.800 239.018,183.818 238.000,184.371 238.000 C 184.607 238.000,184.800 237.807,184.800 237.571 C 184.800 237.336,185.057 236.886,185.371 236.571 C 185.686 236.257,186.136 236.000,186.371 236.000 C 186.607 236.000,186.800 235.807,186.800 235.571 C 186.800 235.018,187.818 234.000,188.371 234.000 C 188.607 234.000,188.800 233.807,188.800 233.571 C 188.800 233.018,189.818 232.000,190.371 232.000 C 190.607 232.000,190.800 231.807,190.800 231.571 C 190.800 231.018,191.818 230.000,192.371 230.000 C 192.607 230.000,192.800 229.590,192.800 229.088 C 192.800 228.587,193.160 227.917,193.600 227.600 C 194.040 227.283,194.400 226.793,194.400 226.512 C 194.400 226.230,194.593 226.000,194.829 226.000 C 195.382 226.000,196.400 224.982,196.400 224.429 C 196.400 224.193,196.593 224.000,196.829 224.000 C 197.064 224.000,197.514 223.743,197.829 223.429 C 198.143 223.114,198.400 222.664,198.400 222.429 C 198.400 222.193,198.593 222.000,198.829 222.000 C 199.382 222.000,200.400 220.982,200.400 220.429 C 200.400 220.193,200.670 220.000,201.000 220.000 C 201.330 220.000,201.600 220.193,201.600 220.429 M263.600 345.600 C 263.600 345.820,264.230 346.000,265.000 346.000 C 265.978 346.000,266.400 346.181,266.400 346.600 C 266.400 346.973,266.778 347.200,267.400 347.200 C 267.950 347.200,268.400 347.380,268.400 347.600 C 268.400 347.820,268.850 348.000,269.400 348.000 C 270.022 348.000,270.400 348.227,270.400 348.600 C 270.400 348.930,270.593 349.200,270.829 349.200 C 271.382 349.200,272.400 350.218,272.400 350.771 C 272.400 351.007,272.593 351.200,272.829 351.200 C 273.534 351.200,274.400 352.286,274.400 353.171 C 274.400 353.627,274.580 354.000,274.800 354.000 C 275.020 354.000,275.200 354.450,275.200 355.000 C 275.200 355.622,275.427 356.000,275.800 356.000 C 276.219 356.000,276.400 356.422,276.400 357.400 C 276.400 358.170,276.580 358.800,276.800 358.800 C 277.037 358.800,277.200 360.267,277.200 362.400 C 277.200 364.533,277.037 366.000,276.800 366.000 C 276.580 366.000,276.400 366.630,276.400 367.400 C 276.400 368.378,276.219 368.800,275.800 368.800 C 275.427 368.800,275.200 369.178,275.200 369.800 C 275.200 370.350,275.020 370.800,274.800 370.800 C 274.580 370.800,274.400 371.173,274.400 371.629 C 274.400 372.514,273.534 373.600,272.829 373.600 C 272.593 373.600,272.400 373.793,272.400 374.029 C 272.400 374.582,271.382 375.600,270.829 375.600 C 270.593 375.600,270.400 375.870,270.400 376.200 C 270.400 376.573,270.022 376.800,269.400 376.800 C 268.850 376.800,268.400 376.980,268.400 377.200 C 268.400 377.420,267.950 377.600,267.400 377.600 C 266.778 377.600,266.400 377.827,266.400 378.200 C 266.400 378.573,266.022 378.800,265.400 378.800 C 264.850 378.800,264.400 378.980,264.400 379.200 C 264.400 379.444,262.533 379.600,259.600 379.600 C 256.667 379.600,254.800 379.444,254.800 379.200 C 254.800 378.980,254.350 378.800,253.800 378.800 C 253.178 378.800,252.800 378.573,252.800 378.200 C 252.800 377.827,252.422 377.600,251.800 377.600 C 251.250 377.600,250.800 377.420,250.800 377.200 C 250.800 376.980,250.530 376.800,250.200 376.800 C 249.870 376.800,249.600 376.530,249.600 376.200 C 249.600 375.860,249.241 375.600,248.771 375.600 C 247.777 375.600,246.800 374.708,246.800 373.800 C 246.800 373.058,245.876 372.000,245.229 372.000 C 244.993 372.000,244.800 371.730,244.800 371.400 C 244.800 371.070,244.620 370.800,244.400 370.800 C 244.180 370.800,244.000 370.170,244.000 369.400 C 244.000 368.422,243.819 368.000,243.400 368.000 C 242.947 368.000,242.800 367.511,242.800 366.000 C 242.800 364.900,242.620 364.000,242.400 364.000 C 242.180 364.000,242.000 363.550,242.000 363.000 C 242.000 362.450,242.180 362.000,242.400 362.000 C 242.621 362.000,242.800 360.948,242.800 359.643 C 242.800 357.916,242.961 357.224,243.400 357.055 C 243.730 356.929,244.000 356.459,244.000 356.013 C 244.000 355.566,244.180 355.200,244.400 355.200 C 244.620 355.200,244.800 354.831,244.800 354.381 C 244.800 353.930,245.250 353.145,245.800 352.635 C 246.350 352.125,246.800 351.324,246.800 350.854 C 246.800 350.257,247.049 350.000,247.629 350.000 C 248.514 350.000,249.600 349.134,249.600 348.429 C 249.600 348.193,249.870 348.000,250.200 348.000 C 250.530 348.000,250.800 347.820,250.800 347.600 C 250.800 347.380,251.250 347.200,251.800 347.200 C 252.422 347.200,252.800 346.973,252.800 346.600 C 252.800 346.181,253.222 346.000,254.200 346.000 C 254.970 346.000,255.600 345.820,255.600 345.600 C 255.600 345.360,257.200 345.200,259.600 345.200 C 262.000 345.200,263.600 345.360,263.600 345.600 M254.800 349.600 C 254.800 349.820,254.350 350.000,253.800 350.000 C 253.178 350.000,252.800 350.227,252.800 350.600 C 252.800 350.973,252.422 351.200,251.800 351.200 C 251.250 351.200,250.800 351.380,250.800 351.600 C 250.800 351.820,250.530 352.000,250.200 352.000 C 249.870 352.000,249.600 352.193,249.600 352.429 C 249.600 352.664,249.343 353.114,249.029 353.429 C 248.714 353.743,248.264 354.000,248.029 354.000 C 247.793 354.000,247.600 354.450,247.600 355.000 C 247.600 355.550,247.420 356.000,247.200 356.000 C 246.980 356.000,246.800 356.619,246.800 357.376 C 246.800 358.133,246.620 358.864,246.400 359.000 C 246.180 359.136,246.000 360.767,246.000 362.624 C 246.000 364.608,246.165 366.000,246.400 366.000 C 246.620 366.000,246.800 366.630,246.800 367.400 C 246.800 368.170,246.980 368.800,247.200 368.800 C 247.420 368.800,247.600 369.250,247.600 369.800 C 247.600 370.350,247.793 370.800,248.029 370.800 C 248.582 370.800,249.600 371.818,249.600 372.371 C 249.600 372.607,249.793 372.800,250.029 372.800 C 250.582 372.800,251.600 373.818,251.600 374.371 C 251.600 374.607,252.050 374.800,252.600 374.800 C 253.150 374.800,253.600 374.980,253.600 375.200 C 253.600 375.420,254.500 375.600,255.600 375.600 C 257.111 375.600,257.600 375.747,257.600 376.200 C 257.600 376.667,258.133 376.800,260.000 376.800 C 261.867 376.800,262.400 376.667,262.400 376.200 C 262.400 375.767,262.844 375.600,264.000 375.600 C 264.880 375.600,265.600 375.420,265.600 375.200 C 265.600 374.980,266.050 374.800,266.600 374.800 C 267.150 374.800,267.600 374.607,267.600 374.371 C 267.600 373.818,268.618 372.800,269.171 372.800 C 269.407 372.800,269.600 372.607,269.600 372.371 C 269.600 371.905,270.585 370.800,271.000 370.800 C 271.695 370.800,272.400 369.506,272.400 368.229 C 272.400 367.443,272.580 366.800,272.800 366.800 C 273.042 366.800,273.200 365.067,273.200 362.400 C 273.200 359.733,273.042 358.000,272.800 358.000 C 272.580 358.000,272.400 357.550,272.400 357.000 C 272.400 356.450,272.220 356.000,272.000 356.000 C 271.780 356.000,271.600 355.550,271.600 355.000 C 271.600 354.450,271.407 354.000,271.171 354.000 C 270.618 354.000,269.600 352.982,269.600 352.429 C 269.600 352.193,269.407 352.000,269.171 352.000 C 268.618 352.000,267.600 350.982,267.600 350.429 C 267.600 350.193,267.150 350.000,266.600 350.000 C 266.050 350.000,265.600 349.820,265.600 349.600 C 265.600 349.353,263.533 349.200,260.200 349.200 C 256.867 349.200,254.800 349.353,254.800 349.600 M261.600 357.600 C 261.600 357.820,261.973 358.000,262.429 358.000 C 262.884 358.000,263.514 358.257,263.829 358.571 C 264.143 358.886,264.400 359.516,264.400 359.971 C 264.400 360.441,264.660 360.800,265.000 360.800 C 265.433 360.800,265.600 361.244,265.600 362.400 C 265.600 363.556,265.433 364.000,265.000 364.000 C 264.660 364.000,264.400 364.359,264.400 364.829 C 264.400 365.714,263.534 366.800,262.829 366.800 C 262.593 366.800,262.400 367.070,262.400 367.400 C 262.400 367.867,261.867 368.000,260.000 368.000 C 258.133 368.000,257.600 367.867,257.600 367.400 C 257.600 367.060,257.241 366.800,256.771 366.800 C 255.269 366.800,254.800 365.855,254.800 362.829 C 254.800 361.210,254.971 360.000,255.200 360.000 C 255.420 360.000,255.600 359.550,255.600 359.000 C 255.600 358.200,255.800 358.000,256.600 358.000 C 257.150 358.000,257.600 357.820,257.600 357.600 C 257.600 357.380,258.500 357.200,259.600 357.200 C 260.700 357.200,261.600 357.380,261.600 357.600  M -25 0 L -5 0 L -5 20 L -25 20 Z M 405 0 L 425 0 L 425 20 L 405 20 Z" stroke="none" fill="#e2e2e2" fill-rule="evenodd" transform="translate(30,0)"></path></g></svg>